<svg width="34" height="32" viewBox="0 0 34 32" fill="none" xmlns="http://www.w3.org/2000/svg">
<path d="M12.7493 1.3335V5.3335M21.2493 1.3335V5.3335M12.7493 26.6668V30.6668M21.2493 26.6668V30.6668M28.3327 12.0002H32.5827M28.3327 18.6668H32.5827M1.41602 12.0002H5.66602M1.41602 18.6668H5.66602M8.49935 5.3335H25.4993C27.0642 5.3335 28.3327 6.5274 28.3327 8.00016V24.0002C28.3327 25.4729 27.0642 26.6668 25.4993 26.6668H8.49935C6.93454 26.6668 5.66602 25.4729 5.66602 24.0002V8.00016C5.66602 6.5274 6.93454 5.3335 8.49935 5.3335ZM12.7493 12.0002H21.2493V20.0002H12.7493V12.0002Z" stroke="#DFE5EF" stroke-width="4" stroke-linecap="round" stroke-linejoin="round"/>
</svg>