<?xml version="1.0" standalone="no"?>
<!DOCTYPE svg PUBLIC "-//W3C//DTD SVG 20010904//EN"
 "http://www.w3.org/TR/2001/REC-SVG-20010904/DTD/svg10.dtd">
<svg version="1.0" xmlns="http://www.w3.org/2000/svg"
 width="1024.000000pt" height="1024.000000pt" viewBox="0 0 1024.000000 1024.000000"
 preserveAspectRatio="xMidYMid meet">

<g transform="translate(0.000000,1024.000000) scale(0.100000,-0.100000)"
fill="#000000" stroke="none">
<path d="M2974 8850 c-306 -40 -579 -291 -651 -599 -17 -72 -18 -234 -18
-3136 0 -3457 -8 -3122 82 -3305 39 -80 61 -109 137 -185 103 -103 195 -158
332 -197 l79 -23 2200 0 2200 0 75 23 c138 44 226 96 326 197 76 76 99 106
138 185 32 65 53 126 66 190 19 93 20 154 20 2453 0 2075 -2 2363 -15 2391
-20 42 -1972 1992 -2008 2006 -34 12 -2867 12 -2963 0z m2516 -515 c16 -8 35
-25 42 -38 10 -17 14 -188 18 -767 5 -728 6 -746 27 -801 31 -83 51 -118 104
-185 59 -75 137 -135 232 -179 134 -63 158 -65 839 -65 590 0 614 -1 645 -20
21 -12 36 -32 43 -57 8 -27 10 -618 8 -2084 l-3 -2046 -30 -49 c-19 -30 -49
-60 -79 -79 l-49 -30 -2131 -3 c-2391 -3 -2181 -10 -2254 73 -21 24 -44 61
-50 83 -9 30 -12 772 -12 3053 0 3011 0 3014 21 3059 27 60 64 98 124 126 l50
24 1213 0 c1062 0 1217 -2 1242 -15z m1195 -922 l580 -583 -552 0 c-327 0
-562 4 -577 10 -56 21 -56 20 -56 619 0 437 3 549 13 544 6 -4 273 -269 592
-590z"/>
</g>
</svg>
