<svg width="402" height="478" viewBox="0 0 402 478" fill="none" xmlns="http://www.w3.org/2000/svg">
<g filter="url(#filter0_dd_3920_13123)">
<rect x="20" y="8" width="362" height="438" rx="12" fill="white"/>
<path d="M51.386 56V42.59H60.224V44.48H53.51V48.332H59.864V50.222H53.51V54.11H60.224V56H51.386ZM61.9985 56V46.262H63.9425V48.368L63.6905 48.044C63.8945 47.384 64.2665 46.886 64.8065 46.55C65.3465 46.214 65.9645 46.046 66.6605 46.046C67.4405 46.046 68.1305 46.256 68.7305 46.676C69.3425 47.084 69.7505 47.63 69.9545 48.314L69.3785 48.368C69.6665 47.588 70.1045 47.006 70.6925 46.622C71.2925 46.238 71.9765 46.046 72.7445 46.046C73.4165 46.046 74.0225 46.202 74.5625 46.514C75.1145 46.826 75.5525 47.258 75.8765 47.81C76.2005 48.362 76.3625 48.992 76.3625 49.7V56H74.3285V50.258C74.3285 49.766 74.2385 49.352 74.0585 49.016C73.8905 48.668 73.6505 48.404 73.3385 48.224C73.0385 48.032 72.6845 47.936 72.2765 47.936C71.8685 47.936 71.5085 48.032 71.1965 48.224C70.8845 48.404 70.6385 48.668 70.4585 49.016C70.2785 49.364 70.1885 49.778 70.1885 50.258V56H68.1725V50.258C68.1725 49.766 68.0825 49.352 67.9025 49.016C67.7345 48.668 67.4945 48.404 67.1825 48.224C66.8825 48.032 66.5225 47.936 66.1025 47.936C65.6945 47.936 65.3345 48.032 65.0225 48.224C64.7105 48.404 64.4645 48.668 64.2845 49.016C64.1165 49.364 64.0325 49.778 64.0325 50.258V56H61.9985ZM78.5396 59.6V46.262H80.4836V48.278L80.2496 47.81C80.6096 47.258 81.0896 46.826 81.6896 46.514C82.2896 46.202 82.9736 46.046 83.7416 46.046C84.6656 46.046 85.4936 46.268 86.2256 46.712C86.9696 47.156 87.5516 47.762 87.9716 48.53C88.4036 49.298 88.6196 50.162 88.6196 51.122C88.6196 52.082 88.4036 52.946 87.9716 53.714C87.5516 54.482 86.9756 55.094 86.2436 55.55C85.5116 55.994 84.6776 56.216 83.7416 56.216C82.9856 56.216 82.2956 56.06 81.6716 55.748C81.0596 55.436 80.5856 54.986 80.2496 54.398L80.5736 54.02V59.6H78.5396ZM83.5436 54.326C84.1196 54.326 84.6296 54.188 85.0736 53.912C85.5176 53.636 85.8656 53.258 86.1176 52.778C86.3816 52.286 86.5136 51.734 86.5136 51.122C86.5136 50.51 86.3816 49.964 86.1176 49.484C85.8656 49.004 85.5176 48.626 85.0736 48.35C84.6296 48.074 84.1196 47.936 83.5436 47.936C82.9796 47.936 82.4696 48.074 82.0136 48.35C81.5696 48.626 81.2156 49.004 80.9516 49.484C80.6996 49.964 80.5736 50.51 80.5736 51.122C80.5736 51.734 80.6996 52.286 80.9516 52.778C81.2156 53.258 81.5696 53.636 82.0136 53.912C82.4696 54.188 82.9796 54.326 83.5436 54.326ZM90.5982 56V42.374H92.6322V56H90.5982ZM99.7083 56.216C98.7723 56.216 97.9143 55.994 97.1343 55.55C96.3663 55.106 95.7543 54.5 95.2983 53.732C94.8423 52.964 94.6143 52.094 94.6143 51.122C94.6143 50.138 94.8423 49.268 95.2983 48.512C95.7543 47.744 96.3663 47.144 97.1343 46.712C97.9023 46.268 98.7603 46.046 99.7083 46.046C100.668 46.046 101.526 46.268 102.282 46.712C103.05 47.144 103.656 47.744 104.1 48.512C104.556 49.268 104.784 50.138 104.784 51.122C104.784 52.106 104.556 52.982 104.1 53.75C103.644 54.518 103.032 55.124 102.264 55.568C101.496 56 100.644 56.216 99.7083 56.216ZM99.7083 54.326C100.284 54.326 100.794 54.188 101.238 53.912C101.682 53.636 102.03 53.258 102.282 52.778C102.546 52.286 102.678 51.734 102.678 51.122C102.678 50.51 102.546 49.964 102.282 49.484C102.03 49.004 101.682 48.626 101.238 48.35C100.794 48.074 100.284 47.936 99.7083 47.936C99.1443 47.936 98.6343 48.074 98.1783 48.35C97.7343 48.626 97.3803 49.004 97.1163 49.484C96.8643 49.964 96.7383 50.51 96.7383 51.122C96.7383 51.734 96.8643 52.286 97.1163 52.778C97.3803 53.258 97.7343 53.636 98.1783 53.912C98.6343 54.188 99.1443 54.326 99.7083 54.326ZM107.458 59.978C107.218 59.978 106.978 59.954 106.738 59.906C106.51 59.87 106.3 59.81 106.108 59.726V57.98C106.252 58.016 106.426 58.046 106.63 58.07C106.834 58.106 107.032 58.124 107.224 58.124C107.788 58.124 108.202 57.998 108.466 57.746C108.742 57.506 108.988 57.128 109.204 56.612L109.852 55.136L109.816 56.846L105.604 46.262H107.782L110.896 54.38H110.158L113.254 46.262H115.45L111.148 57.062C110.92 57.638 110.632 58.142 110.284 58.574C109.948 59.018 109.546 59.36 109.078 59.6C108.622 59.852 108.082 59.978 107.458 59.978ZM121.239 56.216C120.267 56.216 119.403 55.994 118.647 55.55C117.903 55.094 117.321 54.482 116.901 53.714C116.481 52.934 116.271 52.064 116.271 51.104C116.271 50.12 116.481 49.25 116.901 48.494C117.333 47.738 117.909 47.144 118.629 46.712C119.349 46.268 120.165 46.046 121.077 46.046C121.809 46.046 122.463 46.172 123.039 46.424C123.615 46.676 124.101 47.024 124.497 47.468C124.893 47.9 125.193 48.398 125.397 48.962C125.613 49.526 125.721 50.126 125.721 50.762C125.721 50.918 125.715 51.08 125.703 51.248C125.691 51.416 125.667 51.572 125.631 51.716H117.873V50.096H124.479L123.507 50.834C123.627 50.246 123.585 49.724 123.381 49.268C123.189 48.8 122.889 48.434 122.481 48.17C122.085 47.894 121.617 47.756 121.077 47.756C120.537 47.756 120.057 47.894 119.637 48.17C119.217 48.434 118.893 48.818 118.665 49.322C118.437 49.814 118.347 50.414 118.395 51.122C118.335 51.782 118.425 52.358 118.665 52.85C118.917 53.342 119.265 53.726 119.709 54.002C120.165 54.278 120.681 54.416 121.257 54.416C121.845 54.416 122.343 54.284 122.751 54.02C123.171 53.756 123.501 53.414 123.741 52.994L125.397 53.804C125.205 54.26 124.905 54.674 124.497 55.046C124.101 55.406 123.621 55.694 123.057 55.91C122.505 56.114 121.899 56.216 121.239 56.216ZM132.278 56.216C131.306 56.216 130.442 55.994 129.686 55.55C128.942 55.094 128.36 54.482 127.94 53.714C127.52 52.934 127.31 52.064 127.31 51.104C127.31 50.12 127.52 49.25 127.94 48.494C128.372 47.738 128.948 47.144 129.668 46.712C130.388 46.268 131.204 46.046 132.116 46.046C132.848 46.046 133.502 46.172 134.078 46.424C134.654 46.676 135.14 47.024 135.536 47.468C135.932 47.9 136.232 48.398 136.436 48.962C136.652 49.526 136.76 50.126 136.76 50.762C136.76 50.918 136.754 51.08 136.742 51.248C136.73 51.416 136.706 51.572 136.67 51.716H128.912V50.096H135.518L134.546 50.834C134.666 50.246 134.624 49.724 134.42 49.268C134.228 48.8 133.928 48.434 133.52 48.17C133.124 47.894 132.656 47.756 132.116 47.756C131.576 47.756 131.096 47.894 130.676 48.17C130.256 48.434 129.932 48.818 129.704 49.322C129.476 49.814 129.386 50.414 129.434 51.122C129.374 51.782 129.464 52.358 129.704 52.85C129.956 53.342 130.304 53.726 130.748 54.002C131.204 54.278 131.72 54.416 132.296 54.416C132.884 54.416 133.382 54.284 133.79 54.02C134.21 53.756 134.54 53.414 134.78 52.994L136.436 53.804C136.244 54.26 135.944 54.674 135.536 55.046C135.14 55.406 134.66 55.694 134.096 55.91C133.544 56.114 132.938 56.216 132.278 56.216ZM145.491 56.216C144.495 56.216 143.619 55.97 142.863 55.478C142.119 54.986 141.597 54.326 141.297 53.498L142.863 52.76C143.127 53.312 143.487 53.75 143.943 54.074C144.411 54.398 144.927 54.56 145.491 54.56C145.971 54.56 146.361 54.452 146.661 54.236C146.961 54.02 147.111 53.726 147.111 53.354C147.111 53.114 147.045 52.922 146.913 52.778C146.781 52.622 146.613 52.496 146.409 52.4C146.217 52.304 146.019 52.232 145.815 52.184L144.285 51.752C143.445 51.512 142.815 51.152 142.395 50.672C141.987 50.18 141.783 49.61 141.783 48.962C141.783 48.374 141.933 47.864 142.233 47.432C142.533 46.988 142.947 46.646 143.475 46.406C144.003 46.166 144.597 46.046 145.257 46.046C146.145 46.046 146.937 46.268 147.633 46.712C148.329 47.144 148.821 47.75 149.109 48.53L147.543 49.268C147.351 48.8 147.045 48.428 146.625 48.152C146.217 47.876 145.755 47.738 145.239 47.738C144.795 47.738 144.441 47.846 144.177 48.062C143.913 48.266 143.781 48.536 143.781 48.872C143.781 49.1 143.841 49.292 143.961 49.448C144.081 49.592 144.237 49.712 144.429 49.808C144.621 49.892 144.819 49.964 145.023 50.024L146.607 50.492C147.411 50.72 148.029 51.08 148.461 51.572C148.893 52.052 149.109 52.628 149.109 53.3C149.109 53.876 148.953 54.386 148.641 54.83C148.341 55.262 147.921 55.604 147.381 55.856C146.841 56.096 146.211 56.216 145.491 56.216ZM154.018 56.216C153.358 56.216 152.776 56.102 152.272 55.874C151.78 55.634 151.396 55.31 151.12 54.902C150.844 54.482 150.706 53.99 150.706 53.426C150.706 52.898 150.82 52.424 151.048 52.004C151.288 51.584 151.654 51.23 152.146 50.942C152.638 50.654 153.256 50.45 154 50.33L157.384 49.772V51.374L154.396 51.896C153.856 51.992 153.46 52.166 153.208 52.418C152.956 52.658 152.83 52.97 152.83 53.354C152.83 53.726 152.968 54.032 153.244 54.272C153.532 54.5 153.898 54.614 154.342 54.614C154.894 54.614 155.374 54.494 155.782 54.254C156.202 54.014 156.526 53.696 156.754 53.3C156.982 52.892 157.096 52.442 157.096 51.95V49.448C157.096 48.968 156.916 48.578 156.556 48.278C156.208 47.966 155.74 47.81 155.152 47.81C154.612 47.81 154.138 47.954 153.73 48.242C153.334 48.518 153.04 48.878 152.848 49.322L151.156 48.476C151.336 47.996 151.63 47.576 152.038 47.216C152.446 46.844 152.92 46.556 153.46 46.352C154.012 46.148 154.594 46.046 155.206 46.046C155.974 46.046 156.652 46.19 157.24 46.478C157.84 46.766 158.302 47.168 158.626 47.684C158.962 48.188 159.13 48.776 159.13 49.448V56H157.186V54.236L157.6 54.29C157.372 54.686 157.078 55.028 156.718 55.316C156.37 55.604 155.968 55.826 155.512 55.982C155.068 56.138 154.57 56.216 154.018 56.216ZM161.508 56V42.374H163.542V56H161.508ZM168.836 56.216C168.176 56.216 167.594 56.102 167.09 55.874C166.598 55.634 166.214 55.31 165.938 54.902C165.662 54.482 165.524 53.99 165.524 53.426C165.524 52.898 165.638 52.424 165.866 52.004C166.106 51.584 166.472 51.23 166.964 50.942C167.456 50.654 168.074 50.45 168.818 50.33L172.202 49.772V51.374L169.214 51.896C168.674 51.992 168.278 52.166 168.026 52.418C167.774 52.658 167.648 52.97 167.648 53.354C167.648 53.726 167.786 54.032 168.062 54.272C168.35 54.5 168.716 54.614 169.16 54.614C169.712 54.614 170.192 54.494 170.6 54.254C171.02 54.014 171.344 53.696 171.572 53.3C171.8 52.892 171.914 52.442 171.914 51.95V49.448C171.914 48.968 171.734 48.578 171.374 48.278C171.026 47.966 170.558 47.81 169.97 47.81C169.43 47.81 168.956 47.954 168.548 48.242C168.152 48.518 167.858 48.878 167.666 49.322L165.974 48.476C166.154 47.996 166.448 47.576 166.856 47.216C167.264 46.844 167.738 46.556 168.278 46.352C168.83 46.148 169.412 46.046 170.024 46.046C170.792 46.046 171.47 46.19 172.058 46.478C172.658 46.766 173.12 47.168 173.444 47.684C173.78 48.188 173.948 48.776 173.948 49.448V56H172.004V54.236L172.418 54.29C172.19 54.686 171.896 55.028 171.536 55.316C171.188 55.604 170.786 55.826 170.33 55.982C169.886 56.138 169.388 56.216 168.836 56.216ZM176.327 56V46.262H178.271V48.224L178.091 47.936C178.307 47.3 178.655 46.844 179.135 46.568C179.615 46.28 180.191 46.136 180.863 46.136H181.457V47.99H180.611C179.939 47.99 179.393 48.2 178.973 48.62C178.565 49.028 178.361 49.616 178.361 50.384V56H176.327ZM183.712 59.978C183.472 59.978 183.232 59.954 182.992 59.906C182.764 59.87 182.554 59.81 182.362 59.726V57.98C182.506 58.016 182.68 58.046 182.884 58.07C183.088 58.106 183.286 58.124 183.478 58.124C184.042 58.124 184.456 57.998 184.72 57.746C184.996 57.506 185.242 57.128 185.458 56.612L186.106 55.136L186.07 56.846L181.858 46.262H184.036L187.15 54.38H186.412L189.508 46.262H191.704L187.402 57.062C187.174 57.638 186.886 58.142 186.538 58.574C186.202 59.018 185.8 59.36 185.332 59.6C184.876 59.852 184.336 59.978 183.712 59.978Z" fill="#2A3547"/>
<path d="M51.232 80V69.57H57.952V70.62H52.352V74.246H57.672V75.296H52.352V78.95H57.952V80H51.232ZM61.3723 80L58.4463 72.496H59.6223L62.0863 79.076H61.7083L64.1863 72.496H65.3763L62.4223 80H61.3723ZM69.602 80.168C68.902 80.168 68.2673 80 67.698 79.664C67.138 79.3187 66.6946 78.8473 66.368 78.25C66.0413 77.6527 65.878 76.976 65.878 76.22C65.878 75.464 66.0366 74.7967 66.354 74.218C66.6713 73.63 67.1006 73.168 67.642 72.832C68.1926 72.496 68.8086 72.328 69.49 72.328C70.0313 72.328 70.512 72.4307 70.932 72.636C71.3613 72.832 71.7253 73.1027 72.024 73.448C72.3226 73.784 72.5513 74.1667 72.71 74.596C72.8686 75.016 72.948 75.45 72.948 75.898C72.948 75.9913 72.9433 76.0987 72.934 76.22C72.9246 76.332 72.9106 76.4487 72.892 76.57H66.55V75.59H72.29L71.786 76.01C71.87 75.4967 71.8093 75.0393 71.604 74.638C71.408 74.2273 71.1233 73.9053 70.75 73.672C70.3766 73.4293 69.9566 73.308 69.49 73.308C69.0233 73.308 68.5893 73.4293 68.188 73.672C67.796 73.9147 67.488 74.2553 67.264 74.694C67.04 75.1233 66.9513 75.6367 66.998 76.234C66.9513 76.8313 67.0446 77.354 67.278 77.802C67.5206 78.2407 67.8473 78.5813 68.258 78.824C68.678 79.0667 69.126 79.188 69.602 79.188C70.1526 79.188 70.6146 79.0573 70.988 78.796C71.3613 78.5347 71.6646 78.208 71.898 77.816L72.794 78.292C72.6446 78.628 72.416 78.9407 72.108 79.23C71.8 79.51 71.4313 79.7387 71.002 79.916C70.582 80.084 70.1153 80.168 69.602 80.168ZM74.5192 80V72.496H75.5692V73.728L75.4292 73.546C75.6066 73.1913 75.8726 72.9113 76.2273 72.706C76.5912 72.5007 77.0299 72.398 77.5433 72.398H78.0193V73.448H77.3612C76.8199 73.448 76.3859 73.616 76.0592 73.952C75.7326 74.288 75.5692 74.764 75.5692 75.38V80H74.5192ZM79.1237 83.08C78.9744 83.08 78.8204 83.066 78.6617 83.038C78.5124 83.0193 78.3631 82.982 78.2137 82.926V81.946C78.3071 81.9553 78.4237 81.9693 78.5637 81.988C78.7131 82.016 78.8624 82.03 79.0117 82.03C79.4691 82.03 79.8191 81.932 80.0617 81.736C80.3044 81.5493 80.5424 81.1853 80.7757 80.644L81.2517 79.524L81.2237 80.448L78.0457 72.496H79.1797L81.7837 79.062H81.4897L84.0797 72.496H85.2417L81.8117 80.952C81.6624 81.316 81.4711 81.6613 81.2377 81.988C81.0137 82.3147 80.7291 82.576 80.3837 82.772C80.0384 82.9773 79.6184 83.08 79.1237 83.08ZM88.2945 80V72.496H89.3445V73.924L89.1765 73.714C89.3818 73.2753 89.6852 72.9347 90.0865 72.692C90.4972 72.4493 90.9452 72.328 91.4305 72.328C92.0092 72.328 92.5318 72.4913 92.9985 72.818C93.4652 73.1447 93.7965 73.5693 93.9925 74.092L93.6985 74.106C93.8852 73.5273 94.2072 73.0887 94.6645 72.79C95.1312 72.482 95.6445 72.328 96.2045 72.328C96.7085 72.328 97.1705 72.4493 97.5905 72.692C98.0198 72.9347 98.3605 73.2707 98.6125 73.7C98.8738 74.12 99.0045 74.596 99.0045 75.128V80H97.9545V75.534C97.9545 75.0767 97.8705 74.6893 97.7025 74.372C97.5438 74.0547 97.3245 73.812 97.0445 73.644C96.7645 73.4667 96.4425 73.378 96.0785 73.378C95.7238 73.378 95.4018 73.4667 95.1125 73.644C94.8232 73.812 94.5945 74.0593 94.4265 74.386C94.2585 74.7033 94.1745 75.086 94.1745 75.534V80H93.1245V75.534C93.1245 75.0767 93.0405 74.6893 92.8725 74.372C92.7138 74.0547 92.4945 73.812 92.2145 73.644C91.9345 73.4667 91.6125 73.378 91.2485 73.378C90.8845 73.378 90.5578 73.4667 90.2685 73.644C89.9885 73.812 89.7645 74.0593 89.5965 74.386C89.4285 74.7033 89.3445 75.086 89.3445 75.534V80H88.2945ZM104.243 80.168C103.534 80.168 102.89 80 102.311 79.664C101.733 79.3187 101.271 78.852 100.925 78.264C100.589 77.6667 100.421 76.99 100.421 76.234C100.421 75.4873 100.589 74.82 100.925 74.232C101.261 73.644 101.714 73.182 102.283 72.846C102.862 72.5007 103.515 72.328 104.243 72.328C104.971 72.328 105.62 72.496 106.189 72.832C106.768 73.168 107.221 73.63 107.547 74.218C107.883 74.806 108.051 75.478 108.051 76.234C108.051 76.9993 107.879 77.6807 107.533 78.278C107.188 78.866 106.726 79.328 106.147 79.664C105.578 80 104.943 80.168 104.243 80.168ZM104.243 79.118C104.747 79.118 105.2 78.992 105.601 78.74C106.012 78.488 106.334 78.1427 106.567 77.704C106.81 77.2653 106.931 76.7753 106.931 76.234C106.931 75.6927 106.81 75.2073 106.567 74.778C106.334 74.3487 106.012 74.008 105.601 73.756C105.2 73.504 104.747 73.378 104.243 73.378C103.739 73.378 103.282 73.504 102.871 73.756C102.47 74.008 102.148 74.3487 101.905 74.778C101.663 75.2073 101.541 75.6927 101.541 76.234C101.541 76.7753 101.663 77.2653 101.905 77.704C102.148 78.1427 102.47 78.488 102.871 78.74C103.282 78.992 103.739 79.118 104.243 79.118ZM109.623 80V72.496H110.673V73.952L110.435 73.896C110.622 73.4107 110.925 73.028 111.345 72.748C111.774 72.468 112.269 72.328 112.829 72.328C113.361 72.328 113.837 72.4493 114.257 72.692C114.686 72.9347 115.022 73.2707 115.265 73.7C115.517 74.12 115.643 74.596 115.643 75.128V80H114.593V75.534C114.593 75.0767 114.509 74.6893 114.341 74.372C114.182 74.0547 113.954 73.812 113.655 73.644C113.366 73.4667 113.03 73.378 112.647 73.378C112.264 73.378 111.924 73.4667 111.625 73.644C111.326 73.812 111.093 74.0593 110.925 74.386C110.757 74.7033 110.673 75.086 110.673 75.534V80H109.623ZM120.239 80.084C119.567 80.084 119.049 79.888 118.685 79.496C118.321 79.104 118.139 78.544 118.139 77.816V73.546H116.753V72.496H117.103C117.42 72.496 117.672 72.3933 117.859 72.188C118.045 71.9733 118.139 71.7073 118.139 71.39V70.76H119.189V72.496H120.841V73.546H119.189V77.816C119.189 78.068 119.226 78.292 119.301 78.488C119.375 78.6747 119.501 78.824 119.679 78.936C119.865 79.048 120.113 79.104 120.421 79.104C120.495 79.104 120.584 79.0993 120.687 79.09C120.789 79.0807 120.878 79.0713 120.953 79.062V80C120.841 80.028 120.715 80.0467 120.575 80.056C120.435 80.0747 120.323 80.084 120.239 80.084ZM122.516 80V69.402H123.566V73.952L123.328 73.896C123.515 73.4107 123.818 73.028 124.238 72.748C124.668 72.468 125.162 72.328 125.722 72.328C126.254 72.328 126.73 72.4493 127.15 72.692C127.58 72.9347 127.916 73.2707 128.158 73.7C128.41 74.12 128.536 74.596 128.536 75.128V80H127.486V75.534C127.486 75.0767 127.402 74.6893 127.234 74.372C127.066 74.0547 126.833 73.812 126.534 73.644C126.245 73.4667 125.914 73.378 125.54 73.378C125.167 73.378 124.831 73.4667 124.532 73.644C124.234 73.812 123.996 74.0593 123.818 74.386C123.65 74.7033 123.566 75.086 123.566 75.534V80H122.516Z" fill="#7C8FAC"/>
<rect x="50.1667" y="195" width="30" height="85" rx="8" fill="#EAEFF4"/>
<path d="M61.3969 301.144C60.6929 301.144 60.0729 300.952 59.5369 300.568C59.0089 300.176 58.5969 299.636 58.3009 298.948C58.0049 298.252 57.8569 297.444 57.8569 296.524C57.8569 295.604 58.0049 294.8 58.3009 294.112C58.5969 293.416 59.0089 292.876 59.5369 292.492C60.0649 292.108 60.6809 291.916 61.3849 291.916C62.0889 291.916 62.7049 292.108 63.2329 292.492C63.7609 292.876 64.1729 293.416 64.4689 294.112C64.7649 294.8 64.9129 295.604 64.9129 296.524C64.9129 297.444 64.7649 298.252 64.4689 298.948C64.1809 299.644 63.7729 300.184 63.2449 300.568C62.7169 300.952 62.1009 301.144 61.3969 301.144ZM61.3969 300.244C61.9089 300.244 62.3569 300.088 62.7409 299.776C63.1249 299.464 63.4249 299.032 63.6409 298.48C63.8569 297.92 63.9649 297.268 63.9649 296.524C63.9649 295.78 63.8569 295.132 63.6409 294.58C63.4249 294.02 63.1249 293.588 62.7409 293.284C62.3569 292.972 61.9049 292.816 61.3849 292.816C60.8729 292.816 60.4249 292.972 60.0409 293.284C59.6569 293.588 59.3569 294.02 59.1409 294.58C58.9249 295.132 58.8169 295.78 58.8169 296.524C58.8169 297.26 58.9249 297.908 59.1409 298.468C59.3569 299.028 59.6569 299.464 60.0409 299.776C60.4329 300.088 60.8849 300.244 61.3969 300.244ZM70.882 301V298.888H66.334V298.108L70.882 292.06H71.722V298.108H72.814V298.888H71.722V301H70.882ZM67.066 298.456L66.958 298.108H70.882V292.888L71.182 292.972L67.066 298.456ZM55.3554 318L58.6194 309.06H59.6514L62.9154 318H61.9074L61.1394 315.816H57.1434L56.3634 318H55.3554ZM57.4554 314.916H60.8034L58.9914 309.78H59.2794L57.4554 314.916ZM63.9755 320.4V311.568H64.8755V313.008L64.7315 312.756C64.9875 312.348 65.3275 312.024 65.7515 311.784C66.1835 311.544 66.6755 311.424 67.2275 311.424C67.8355 311.424 68.3755 311.572 68.8475 311.868C69.3275 312.156 69.7035 312.552 69.9755 313.056C70.2555 313.56 70.3955 314.136 70.3955 314.784C70.3955 315.424 70.2555 316 69.9755 316.512C69.7035 317.016 69.3275 317.416 68.8475 317.712C68.3755 318 67.8355 318.144 67.2275 318.144C66.6755 318.144 66.1755 318.02 65.7275 317.772C65.2875 317.516 64.9555 317.156 64.7315 316.692L64.8755 316.56V320.4H63.9755ZM67.1795 317.244C67.6115 317.244 67.9955 317.136 68.3315 316.92C68.6755 316.704 68.9435 316.412 69.1355 316.044C69.3355 315.668 69.4355 315.248 69.4355 314.784C69.4355 314.312 69.3355 313.892 69.1355 313.524C68.9435 313.156 68.6755 312.864 68.3315 312.648C67.9955 312.432 67.6115 312.324 67.1795 312.324C66.7475 312.324 66.3555 312.432 66.0035 312.648C65.6595 312.864 65.3835 313.16 65.1755 313.536C64.9755 313.904 64.8755 314.32 64.8755 314.784C64.8755 315.248 64.9755 315.668 65.1755 316.044C65.3835 316.412 65.6595 316.704 66.0035 316.92C66.3555 317.136 66.7475 317.244 67.1795 317.244ZM71.9794 318V311.568H72.8794V312.624L72.7594 312.468C72.9114 312.164 73.1394 311.924 73.4434 311.748C73.7554 311.572 74.1314 311.484 74.5714 311.484H74.9794V312.384H74.4154C73.9514 312.384 73.5794 312.528 73.2994 312.816C73.0194 313.104 72.8794 313.512 72.8794 314.04V318H71.9794Z" fill="#7C8FAC"/>
<rect x="104.5" y="126" width="30" height="154" rx="8" fill="#EAEFF4"/>
<path d="M115.812 301.144C115.108 301.144 114.488 300.952 113.952 300.568C113.424 300.176 113.012 299.636 112.716 298.948C112.42 298.252 112.272 297.444 112.272 296.524C112.272 295.604 112.42 294.8 112.716 294.112C113.012 293.416 113.424 292.876 113.952 292.492C114.48 292.108 115.096 291.916 115.8 291.916C116.504 291.916 117.12 292.108 117.648 292.492C118.176 292.876 118.588 293.416 118.884 294.112C119.18 294.8 119.328 295.604 119.328 296.524C119.328 297.444 119.18 298.252 118.884 298.948C118.596 299.644 118.188 300.184 117.66 300.568C117.132 300.952 116.516 301.144 115.812 301.144ZM115.812 300.244C116.324 300.244 116.772 300.088 117.156 299.776C117.54 299.464 117.84 299.032 118.056 298.48C118.272 297.92 118.38 297.268 118.38 296.524C118.38 295.78 118.272 295.132 118.056 294.58C117.84 294.02 117.54 293.588 117.156 293.284C116.772 292.972 116.32 292.816 115.8 292.816C115.288 292.816 114.84 292.972 114.456 293.284C114.072 293.588 113.772 294.02 113.556 294.58C113.34 295.132 113.232 295.78 113.232 296.524C113.232 297.26 113.34 297.908 113.556 298.468C113.772 299.028 114.072 299.464 114.456 299.776C114.848 300.088 115.3 300.244 115.812 300.244ZM123.821 301.144C123.357 301.144 122.925 301.064 122.525 300.904C122.133 300.744 121.789 300.516 121.493 300.22C121.197 299.924 120.973 299.572 120.821 299.164L121.553 298.804C121.737 299.268 122.037 299.636 122.453 299.908C122.877 300.172 123.333 300.304 123.821 300.304C124.213 300.304 124.561 300.212 124.865 300.028C125.177 299.844 125.421 299.596 125.597 299.284C125.773 298.964 125.861 298.608 125.861 298.216C125.861 297.808 125.769 297.448 125.585 297.136C125.409 296.824 125.169 296.58 124.865 296.404C124.561 296.22 124.217 296.128 123.833 296.128C123.441 296.128 123.077 296.22 122.741 296.404C122.413 296.58 122.173 296.796 122.021 297.052L121.265 296.908L121.937 292.06H126.461V292.9H122.285L122.657 292.576L122.117 296.392L121.745 296.224C122.025 295.88 122.353 295.636 122.729 295.492C123.105 295.34 123.489 295.264 123.881 295.264C124.457 295.264 124.965 295.4 125.405 295.672C125.845 295.936 126.189 296.292 126.437 296.74C126.693 297.18 126.821 297.672 126.821 298.216C126.821 298.768 126.689 299.268 126.425 299.716C126.169 300.156 125.813 300.504 125.357 300.76C124.909 301.016 124.397 301.144 123.821 301.144ZM108.89 318V309.06H109.73L113.09 313.932H112.622L115.97 309.06H116.81V318H115.85V310.356L116.162 310.476L112.874 315.24H112.826L109.55 310.476L109.85 310.356V318H108.89ZM120.649 318.144C120.241 318.144 119.877 318.068 119.557 317.916C119.237 317.756 118.985 317.54 118.801 317.268C118.617 316.996 118.525 316.684 118.525 316.332C118.525 315.996 118.597 315.692 118.741 315.42C118.885 315.14 119.109 314.904 119.413 314.712C119.717 314.52 120.105 314.384 120.577 314.304L123.097 313.884V314.7L120.793 315.084C120.329 315.164 119.993 315.312 119.785 315.528C119.585 315.744 119.485 316 119.485 316.296C119.485 316.584 119.597 316.828 119.821 317.028C120.053 317.228 120.349 317.328 120.709 317.328C121.149 317.328 121.533 317.236 121.861 317.052C122.189 316.86 122.445 316.604 122.629 316.284C122.813 315.964 122.905 315.608 122.905 315.216V313.584C122.905 313.2 122.765 312.888 122.485 312.648C122.205 312.408 121.841 312.288 121.393 312.288C121.001 312.288 120.657 312.388 120.361 312.588C120.065 312.78 119.845 313.032 119.701 313.344L118.885 312.9C119.005 312.628 119.193 312.38 119.449 312.156C119.713 311.932 120.013 311.756 120.349 311.628C120.685 311.492 121.033 311.424 121.393 311.424C121.865 311.424 122.281 311.516 122.641 311.7C123.009 311.884 123.293 312.14 123.493 312.468C123.701 312.788 123.805 313.16 123.805 313.584V318H122.905V316.716L123.037 316.848C122.925 317.088 122.749 317.308 122.509 317.508C122.277 317.7 122.001 317.856 121.681 317.976C121.369 318.088 121.025 318.144 120.649 318.144ZM125.788 320.64C125.66 320.64 125.528 320.628 125.392 320.604C125.264 320.588 125.136 320.556 125.008 320.508V319.668C125.088 319.676 125.188 319.688 125.308 319.704C125.436 319.728 125.564 319.74 125.692 319.74C126.084 319.74 126.384 319.656 126.592 319.488C126.8 319.328 127.004 319.016 127.204 318.552L127.612 317.592L127.588 318.384L124.864 311.568H125.836L128.068 317.196H127.816L130.036 311.568H131.032L128.092 318.816C127.964 319.128 127.8 319.424 127.6 319.704C127.408 319.984 127.164 320.208 126.868 320.376C126.572 320.552 126.212 320.64 125.788 320.64Z" fill="#7C8FAC"/>
<rect x="158.833" y="180" width="30" height="100" rx="8" fill="#EAEFF4"/>
<path d="M170.263 301.144C169.559 301.144 168.939 300.952 168.403 300.568C167.875 300.176 167.463 299.636 167.167 298.948C166.871 298.252 166.723 297.444 166.723 296.524C166.723 295.604 166.871 294.8 167.167 294.112C167.463 293.416 167.875 292.876 168.403 292.492C168.931 292.108 169.547 291.916 170.251 291.916C170.955 291.916 171.571 292.108 172.099 292.492C172.627 292.876 173.039 293.416 173.335 294.112C173.631 294.8 173.779 295.604 173.779 296.524C173.779 297.444 173.631 298.252 173.335 298.948C173.047 299.644 172.639 300.184 172.111 300.568C171.583 300.952 170.967 301.144 170.263 301.144ZM170.263 300.244C170.775 300.244 171.223 300.088 171.607 299.776C171.991 299.464 172.291 299.032 172.507 298.48C172.723 297.92 172.831 297.268 172.831 296.524C172.831 295.78 172.723 295.132 172.507 294.58C172.291 294.02 171.991 293.588 171.607 293.284C171.223 292.972 170.771 292.816 170.251 292.816C169.739 292.816 169.291 292.972 168.907 293.284C168.523 293.588 168.223 294.02 168.007 294.58C167.791 295.132 167.683 295.78 167.683 296.524C167.683 297.26 167.791 297.908 168.007 298.468C168.223 299.028 168.523 299.464 168.907 299.776C169.299 300.088 169.751 300.244 170.263 300.244ZM178.248 301.144C177.688 301.144 177.192 301.02 176.76 300.772C176.328 300.516 175.988 300.168 175.74 299.728C175.492 299.28 175.368 298.768 175.368 298.192C175.368 297.872 175.404 297.556 175.476 297.244C175.556 296.932 175.672 296.624 175.824 296.32C175.984 296.016 176.176 295.712 176.4 295.408L178.92 292.06H180.072L176.964 296.128L176.784 296.236C176.904 296.036 177.044 295.884 177.204 295.78C177.364 295.668 177.54 295.588 177.732 295.54C177.932 295.492 178.144 295.468 178.368 295.468C178.888 295.468 179.356 295.592 179.772 295.84C180.188 296.08 180.516 296.412 180.756 296.836C181.004 297.26 181.128 297.752 181.128 298.312C181.128 298.848 181 299.332 180.744 299.764C180.496 300.188 180.156 300.524 179.724 300.772C179.292 301.02 178.8 301.144 178.248 301.144ZM178.248 300.304C178.616 300.304 178.944 300.22 179.232 300.052C179.52 299.876 179.748 299.636 179.916 299.332C180.084 299.028 180.168 298.688 180.168 298.312C180.168 297.928 180.084 297.588 179.916 297.292C179.756 296.996 179.532 296.764 179.244 296.596C178.956 296.42 178.624 296.332 178.248 296.332C177.88 296.332 177.548 296.42 177.252 296.596C176.964 296.764 176.736 296.996 176.568 297.292C176.408 297.588 176.328 297.928 176.328 298.312C176.328 298.688 176.412 299.028 176.58 299.332C176.748 299.636 176.976 299.876 177.264 300.052C177.552 300.22 177.88 300.304 178.248 300.304ZM165.318 318V317.04H165.798C166.246 317.04 166.598 316.908 166.854 316.644C167.11 316.372 167.238 316.004 167.238 315.54V309.06H168.198V315.54C168.198 316.044 168.098 316.48 167.898 316.848C167.706 317.216 167.43 317.5 167.07 317.7C166.71 317.9 166.286 318 165.798 318H165.318ZM172.455 318.144C172.007 318.144 171.599 318.04 171.231 317.832C170.863 317.616 170.571 317.32 170.355 316.944C170.147 316.56 170.043 316.12 170.043 315.624V311.568H170.943V315.516C170.943 315.86 171.011 316.164 171.147 316.428C171.291 316.684 171.487 316.884 171.735 317.028C171.991 317.172 172.283 317.244 172.611 317.244C172.939 317.244 173.231 317.172 173.487 317.028C173.743 316.876 173.943 316.664 174.087 316.392C174.231 316.112 174.303 315.78 174.303 315.396V311.568H175.203V318H174.303V316.752L174.507 316.8C174.355 317.216 174.095 317.544 173.727 317.784C173.359 318.024 172.935 318.144 172.455 318.144ZM177.054 318V311.568H177.954V312.816L177.75 312.768C177.91 312.352 178.17 312.024 178.53 311.784C178.898 311.544 179.322 311.424 179.802 311.424C180.258 311.424 180.666 311.528 181.026 311.736C181.394 311.944 181.682 312.232 181.89 312.6C182.106 312.96 182.214 313.368 182.214 313.824V318H181.314V314.172C181.314 313.78 181.242 313.448 181.098 313.176C180.962 312.904 180.766 312.696 180.51 312.552C180.262 312.4 179.974 312.324 179.646 312.324C179.318 312.324 179.026 312.4 178.77 312.552C178.514 312.696 178.314 312.908 178.17 313.188C178.026 313.46 177.954 313.788 177.954 314.172V318H177.054Z" fill="#7C8FAC"/>
<rect x="213.167" y="144" width="30" height="136" rx="8" fill="#FB7F0D"/>
<path d="M224.918 301.144C224.214 301.144 223.594 300.952 223.058 300.568C222.53 300.176 222.118 299.636 221.822 298.948C221.526 298.252 221.378 297.444 221.378 296.524C221.378 295.604 221.526 294.8 221.822 294.112C222.118 293.416 222.53 292.876 223.058 292.492C223.586 292.108 224.202 291.916 224.906 291.916C225.61 291.916 226.226 292.108 226.754 292.492C227.282 292.876 227.694 293.416 227.99 294.112C228.286 294.8 228.434 295.604 228.434 296.524C228.434 297.444 228.286 298.252 227.99 298.948C227.702 299.644 227.294 300.184 226.766 300.568C226.238 300.952 225.622 301.144 224.918 301.144ZM224.918 300.244C225.43 300.244 225.878 300.088 226.262 299.776C226.646 299.464 226.946 299.032 227.162 298.48C227.378 297.92 227.486 297.268 227.486 296.524C227.486 295.78 227.378 295.132 227.162 294.58C226.946 294.02 226.646 293.588 226.262 293.284C225.878 292.972 225.426 292.816 224.906 292.816C224.394 292.816 223.946 292.972 223.562 293.284C223.178 293.588 222.878 294.02 222.662 294.58C222.446 295.132 222.338 295.78 222.338 296.524C222.338 297.26 222.446 297.908 222.662 298.468C222.878 299.028 223.178 299.464 223.562 299.776C223.954 300.088 224.406 300.244 224.918 300.244ZM230.251 301L234.283 292.9H229.819V292.06H235.279V292.9L231.259 301H230.251ZM221.719 318V317.04H222.199C222.647 317.04 222.999 316.908 223.255 316.644C223.511 316.372 223.639 316.004 223.639 315.54V309.06H224.599V315.54C224.599 316.044 224.499 316.48 224.299 316.848C224.107 317.216 223.831 317.5 223.471 317.7C223.111 317.9 222.687 318 222.199 318H221.719ZM228.857 318.144C228.409 318.144 228.001 318.04 227.633 317.832C227.265 317.616 226.973 317.32 226.757 316.944C226.549 316.56 226.445 316.12 226.445 315.624V311.568H227.345V315.516C227.345 315.86 227.413 316.164 227.549 316.428C227.693 316.684 227.889 316.884 228.137 317.028C228.393 317.172 228.685 317.244 229.013 317.244C229.341 317.244 229.633 317.172 229.889 317.028C230.145 316.876 230.345 316.664 230.489 316.392C230.633 316.112 230.705 315.78 230.705 315.396V311.568H231.605V318H230.705V316.752L230.909 316.8C230.757 317.216 230.497 317.544 230.129 317.784C229.761 318.024 229.337 318.144 228.857 318.144ZM233.456 318V308.916H234.356V318H233.456Z" fill="#7C8FAC"/>
<rect x="267.5" y="223" width="30" height="57" rx="8" fill="#EAEFF4"/>
<path d="M278.742 301.144C278.038 301.144 277.418 300.952 276.882 300.568C276.354 300.176 275.942 299.636 275.646 298.948C275.35 298.252 275.202 297.444 275.202 296.524C275.202 295.604 275.35 294.8 275.646 294.112C275.942 293.416 276.354 292.876 276.882 292.492C277.41 292.108 278.026 291.916 278.73 291.916C279.434 291.916 280.05 292.108 280.578 292.492C281.106 292.876 281.518 293.416 281.814 294.112C282.11 294.8 282.258 295.604 282.258 296.524C282.258 297.444 282.11 298.252 281.814 298.948C281.526 299.644 281.118 300.184 280.59 300.568C280.062 300.952 279.446 301.144 278.742 301.144ZM278.742 300.244C279.254 300.244 279.702 300.088 280.086 299.776C280.47 299.464 280.77 299.032 280.986 298.48C281.202 297.92 281.31 297.268 281.31 296.524C281.31 295.78 281.202 295.132 280.986 294.58C280.77 294.02 280.47 293.588 280.086 293.284C279.702 292.972 279.25 292.816 278.73 292.816C278.218 292.816 277.77 292.972 277.386 293.284C277.002 293.588 276.702 294.02 276.486 294.58C276.27 295.132 276.162 295.78 276.162 296.524C276.162 297.26 276.27 297.908 276.486 298.468C276.702 299.028 277.002 299.464 277.386 299.776C277.778 300.088 278.23 300.244 278.742 300.244ZM286.895 301.144C286.319 301.144 285.803 301.028 285.347 300.796C284.899 300.556 284.543 300.232 284.279 299.824C284.023 299.408 283.895 298.94 283.895 298.42C283.895 297.852 284.055 297.344 284.375 296.896C284.703 296.448 285.143 296.136 285.695 295.96V296.212C285.271 296.028 284.943 295.756 284.711 295.396C284.479 295.028 284.363 294.636 284.363 294.22C284.363 293.78 284.475 293.388 284.699 293.044C284.923 292.7 285.223 292.428 285.599 292.228C285.983 292.02 286.415 291.916 286.895 291.916C287.383 291.916 287.815 292.016 288.191 292.216C288.567 292.408 288.863 292.68 289.079 293.032C289.303 293.376 289.415 293.772 289.415 294.22C289.415 294.668 289.295 295.068 289.055 295.42C288.815 295.764 288.499 296.028 288.107 296.212L288.095 295.96C288.647 296.136 289.083 296.448 289.403 296.896C289.731 297.344 289.895 297.852 289.895 298.42C289.895 298.94 289.763 299.408 289.499 299.824C289.243 300.232 288.887 300.556 288.431 300.796C287.983 301.028 287.471 301.144 286.895 301.144ZM286.895 300.304C287.303 300.304 287.659 300.228 287.963 300.076C288.267 299.916 288.503 299.696 288.671 299.416C288.847 299.128 288.935 298.796 288.935 298.42C288.935 298.044 288.847 297.716 288.671 297.436C288.503 297.148 288.267 296.928 287.963 296.776C287.659 296.616 287.303 296.536 286.895 296.536C286.487 296.536 286.127 296.616 285.815 296.776C285.511 296.928 285.275 297.148 285.107 297.436C284.939 297.716 284.855 298.044 284.855 298.42C284.855 298.796 284.939 299.128 285.107 299.416C285.275 299.696 285.511 299.916 285.815 300.076C286.127 300.228 286.487 300.304 286.895 300.304ZM286.895 295.696C287.191 295.696 287.455 295.636 287.687 295.516C287.919 295.388 288.103 295.216 288.239 295C288.383 294.776 288.455 294.516 288.455 294.22C288.455 293.924 288.383 293.668 288.239 293.452C288.103 293.236 287.919 293.068 287.687 292.948C287.455 292.82 287.191 292.756 286.895 292.756C286.599 292.756 286.331 292.82 286.091 292.948C285.859 293.068 285.671 293.236 285.527 293.452C285.391 293.668 285.323 293.924 285.323 294.22C285.323 294.516 285.391 294.776 285.527 295C285.671 295.216 285.859 295.388 286.091 295.516C286.331 295.636 286.599 295.696 286.895 295.696ZM271.364 318L274.628 309.06H275.66L278.924 318H277.916L277.148 315.816H273.152L272.372 318H271.364ZM273.464 314.916H276.812L275 309.78H275.288L273.464 314.916ZM282.147 318.144C281.699 318.144 281.291 318.04 280.923 317.832C280.555 317.616 280.263 317.32 280.047 316.944C279.839 316.56 279.735 316.12 279.735 315.624V311.568H280.635V315.516C280.635 315.86 280.703 316.164 280.839 316.428C280.983 316.684 281.179 316.884 281.427 317.028C281.683 317.172 281.975 317.244 282.303 317.244C282.631 317.244 282.923 317.172 283.179 317.028C283.435 316.876 283.635 316.664 283.779 316.392C283.923 316.112 283.995 315.78 283.995 315.396V311.568H284.895V318H283.995V316.752L284.199 316.8C284.047 317.216 283.787 317.544 283.419 317.784C283.051 318.024 282.627 318.144 282.147 318.144ZM289.794 320.64C289.354 320.64 288.946 320.572 288.57 320.436C288.202 320.3 287.882 320.112 287.61 319.872C287.346 319.64 287.142 319.368 286.998 319.056L287.826 318.612C287.954 318.916 288.182 319.18 288.51 319.404C288.838 319.628 289.258 319.74 289.77 319.74C290.162 319.74 290.522 319.664 290.85 319.512C291.178 319.36 291.442 319.136 291.642 318.84C291.842 318.544 291.942 318.18 291.942 317.748V316.32L292.086 316.452C291.862 316.916 291.53 317.276 291.09 317.532C290.65 317.78 290.17 317.904 289.65 317.904C289.05 317.904 288.51 317.76 288.03 317.472C287.55 317.184 287.17 316.796 286.89 316.308C286.618 315.812 286.482 315.264 286.482 314.664C286.482 314.056 286.618 313.508 286.89 313.02C287.17 312.532 287.546 312.144 288.018 311.856C288.498 311.568 289.042 311.424 289.65 311.424C290.17 311.424 290.642 311.544 291.066 311.784C291.498 312.024 291.838 312.348 292.086 312.756L291.942 313.008V311.568H292.842V317.748C292.842 318.3 292.71 318.792 292.446 319.224C292.19 319.664 291.83 320.008 291.366 320.256C290.91 320.512 290.386 320.64 289.794 320.64ZM289.698 317.004C290.114 317.004 290.49 316.9 290.826 316.692C291.162 316.476 291.43 316.192 291.63 315.84C291.838 315.48 291.942 315.088 291.942 314.664C291.942 314.24 291.838 313.852 291.63 313.5C291.43 313.14 291.162 312.856 290.826 312.648C290.49 312.432 290.114 312.324 289.698 312.324C289.274 312.324 288.89 312.432 288.546 312.648C288.202 312.856 287.93 313.136 287.73 313.488C287.538 313.84 287.442 314.232 287.442 314.664C287.442 315.088 287.538 315.48 287.73 315.84C287.93 316.192 288.198 316.476 288.534 316.692C288.878 316.9 289.266 317.004 289.698 317.004Z" fill="#7C8FAC"/>
<rect x="321.833" y="199" width="30" height="81" rx="8" fill="#EAEFF4"/>
<path d="M333.263 301.144C332.559 301.144 331.939 300.952 331.403 300.568C330.875 300.176 330.463 299.636 330.167 298.948C329.871 298.252 329.723 297.444 329.723 296.524C329.723 295.604 329.871 294.8 330.167 294.112C330.463 293.416 330.875 292.876 331.403 292.492C331.931 292.108 332.547 291.916 333.251 291.916C333.955 291.916 334.571 292.108 335.099 292.492C335.627 292.876 336.039 293.416 336.335 294.112C336.631 294.8 336.779 295.604 336.779 296.524C336.779 297.444 336.631 298.252 336.335 298.948C336.047 299.644 335.639 300.184 335.111 300.568C334.583 300.952 333.967 301.144 333.263 301.144ZM333.263 300.244C333.775 300.244 334.223 300.088 334.607 299.776C334.991 299.464 335.291 299.032 335.507 298.48C335.723 297.92 335.831 297.268 335.831 296.524C335.831 295.78 335.723 295.132 335.507 294.58C335.291 294.02 334.991 293.588 334.607 293.284C334.223 292.972 333.771 292.816 333.251 292.816C332.739 292.816 332.291 292.972 331.907 293.284C331.523 293.588 331.223 294.02 331.007 294.58C330.791 295.132 330.683 295.78 330.683 296.524C330.683 297.26 330.791 297.908 331.007 298.468C331.223 299.028 331.523 299.464 331.907 299.776C332.299 300.088 332.751 300.244 333.263 300.244ZM339.388 301L342.496 296.932L342.676 296.824C342.556 297.016 342.416 297.168 342.256 297.28C342.096 297.392 341.92 297.472 341.728 297.52C341.536 297.568 341.324 297.592 341.092 297.592C340.572 297.592 340.104 297.472 339.688 297.232C339.272 296.984 338.94 296.648 338.692 296.224C338.452 295.792 338.332 295.3 338.332 294.748C338.332 294.204 338.456 293.72 338.704 293.296C338.96 292.872 339.304 292.536 339.736 292.288C340.176 292.04 340.668 291.916 341.212 291.916C341.772 291.916 342.268 292.044 342.7 292.3C343.132 292.548 343.472 292.896 343.72 293.344C343.968 293.784 344.092 294.292 344.092 294.868C344.092 295.188 344.052 295.504 343.972 295.816C343.9 296.128 343.788 296.436 343.636 296.74C343.484 297.044 343.292 297.348 343.06 297.652L340.54 301H339.388ZM341.212 296.728C341.588 296.728 341.92 296.644 342.208 296.476C342.496 296.3 342.72 296.064 342.88 295.768C343.048 295.464 343.132 295.124 343.132 294.748C343.132 294.364 343.048 294.024 342.88 293.728C342.712 293.424 342.484 293.188 342.196 293.02C341.908 292.844 341.58 292.756 341.212 292.756C340.844 292.756 340.516 292.844 340.228 293.02C339.94 293.188 339.712 293.424 339.544 293.728C339.376 294.024 339.292 294.364 339.292 294.748C339.292 295.124 339.372 295.464 339.532 295.768C339.7 296.064 339.928 296.3 340.216 296.476C340.512 296.644 340.844 296.728 341.212 296.728ZM329.329 318.144C328.761 318.144 328.245 318.036 327.781 317.82C327.317 317.604 326.925 317.316 326.605 316.956C326.285 316.588 326.057 316.184 325.921 315.744L326.785 315.42C326.993 316.028 327.317 316.492 327.757 316.812C328.197 317.124 328.721 317.28 329.329 317.28C329.713 317.28 330.049 317.22 330.337 317.1C330.633 316.972 330.861 316.796 331.021 316.572C331.181 316.348 331.261 316.088 331.261 315.792C331.261 315.352 331.141 315.012 330.901 314.772C330.661 314.532 330.317 314.348 329.869 314.22L328.261 313.74C327.629 313.556 327.141 313.248 326.797 312.816C326.461 312.384 326.293 311.892 326.293 311.34C326.293 310.868 326.409 310.452 326.641 310.092C326.873 309.724 327.189 309.436 327.589 309.228C327.997 309.02 328.457 308.916 328.969 308.916C329.505 308.916 329.985 309.016 330.409 309.216C330.841 309.408 331.205 309.664 331.501 309.984C331.797 310.304 332.009 310.66 332.137 311.052L331.297 311.388C331.105 310.86 330.805 310.46 330.397 310.188C329.997 309.916 329.525 309.78 328.981 309.78C328.637 309.78 328.333 309.84 328.069 309.96C327.813 310.08 327.613 310.252 327.469 310.476C327.325 310.7 327.253 310.964 327.253 311.268C327.253 311.636 327.369 311.968 327.601 312.264C327.833 312.552 328.189 312.768 328.669 312.912L330.085 313.332C330.789 313.54 331.321 313.84 331.681 314.232C332.041 314.624 332.221 315.116 332.221 315.708C332.221 316.188 332.097 316.612 331.849 316.98C331.609 317.34 331.269 317.624 330.829 317.832C330.397 318.04 329.897 318.144 329.329 318.144ZM333.943 320.4V311.568H334.843V313.008L334.699 312.756C334.955 312.348 335.295 312.024 335.719 311.784C336.151 311.544 336.643 311.424 337.195 311.424C337.803 311.424 338.343 311.572 338.815 311.868C339.295 312.156 339.671 312.552 339.943 313.056C340.223 313.56 340.363 314.136 340.363 314.784C340.363 315.424 340.223 316 339.943 316.512C339.671 317.016 339.295 317.416 338.815 317.712C338.343 318 337.803 318.144 337.195 318.144C336.643 318.144 336.143 318.02 335.695 317.772C335.255 317.516 334.923 317.156 334.699 316.692L334.843 316.56V320.4H333.943ZM337.147 317.244C337.579 317.244 337.963 317.136 338.299 316.92C338.643 316.704 338.911 316.412 339.103 316.044C339.303 315.668 339.403 315.248 339.403 314.784C339.403 314.312 339.303 313.892 339.103 313.524C338.911 313.156 338.643 312.864 338.299 312.648C337.963 312.432 337.579 312.324 337.147 312.324C336.715 312.324 336.323 312.432 335.971 312.648C335.627 312.864 335.351 313.16 335.143 313.536C334.943 313.904 334.843 314.32 334.843 314.784C334.843 315.248 334.943 315.668 335.143 316.044C335.351 316.412 335.627 316.704 335.971 316.92C336.323 317.136 336.715 317.244 337.147 317.244ZM344.875 318.144C344.275 318.144 343.731 318 343.243 317.712C342.763 317.416 342.383 317.012 342.103 316.5C341.823 315.988 341.683 315.408 341.683 314.76C341.683 314.112 341.819 313.54 342.091 313.044C342.363 312.54 342.731 312.144 343.195 311.856C343.667 311.568 344.195 311.424 344.779 311.424C345.243 311.424 345.655 311.512 346.015 311.688C346.383 311.856 346.695 312.088 346.951 312.384C347.207 312.672 347.403 313 347.539 313.368C347.675 313.728 347.743 314.1 347.743 314.484C347.743 314.564 347.739 314.656 347.731 314.76C347.723 314.856 347.711 314.956 347.695 315.06H342.259V314.22H347.179L346.747 314.58C346.819 314.14 346.767 313.748 346.591 313.404C346.423 313.052 346.179 312.776 345.859 312.576C345.539 312.368 345.179 312.264 344.779 312.264C344.379 312.264 344.007 312.368 343.663 312.576C343.327 312.784 343.063 313.076 342.871 313.452C342.679 313.82 342.603 314.26 342.643 314.772C342.603 315.284 342.683 315.732 342.883 316.116C343.091 316.492 343.371 316.784 343.723 316.992C344.083 317.2 344.467 317.304 344.875 317.304C345.347 317.304 345.743 317.192 346.063 316.968C346.383 316.744 346.643 316.464 346.843 316.128L347.611 316.536C347.483 316.824 347.287 317.092 347.023 317.34C346.759 317.58 346.443 317.776 346.075 317.928C345.715 318.072 345.315 318.144 344.875 318.144Z" fill="#7C8FAC"/>
<rect x="50" y="365.5" width="40" height="40" rx="12" fill="#ECF2FF"/>
<path d="M64 393.125C63.55 393.125 63.1667 392.967 62.85 392.65C62.5333 392.333 62.375 391.95 62.375 391.5C62.375 391.05 62.5333 390.667 62.85 390.35C63.1667 390.033 63.55 389.875 64 389.875C64.45 389.875 64.8333 390.033 65.15 390.35C65.4667 390.667 65.625 391.05 65.625 391.5C65.625 391.95 65.4667 392.333 65.15 392.65C64.8333 392.967 64.45 393.125 64 393.125ZM70 393.125C69.55 393.125 69.1667 392.967 68.85 392.65C68.5333 392.333 68.375 391.95 68.375 391.5C68.375 391.05 68.5333 390.667 68.85 390.35C69.1667 390.033 69.55 389.875 70 389.875C70.45 389.875 70.8333 390.033 71.15 390.35C71.4667 390.667 71.625 391.05 71.625 391.5C71.625 391.95 71.4667 392.333 71.15 392.65C70.8333 392.967 70.45 393.125 70 393.125ZM76 393.125C75.55 393.125 75.1667 392.967 74.85 392.65C74.5333 392.333 74.375 391.95 74.375 391.5C74.375 391.05 74.5333 390.667 74.85 390.35C75.1667 390.033 75.55 389.875 76 389.875C76.45 389.875 76.8333 390.033 77.15 390.35C77.4667 390.667 77.625 391.05 77.625 391.5C77.625 391.95 77.4667 392.333 77.15 392.65C76.8333 392.967 76.45 393.125 76 393.125ZM64 387.125C63.55 387.125 63.1667 386.967 62.85 386.65C62.5333 386.333 62.375 385.95 62.375 385.5C62.375 385.05 62.5333 384.667 62.85 384.35C63.1667 384.033 63.55 383.875 64 383.875C64.45 383.875 64.8333 384.033 65.15 384.35C65.4667 384.667 65.625 385.05 65.625 385.5C65.625 385.95 65.4667 386.333 65.15 386.65C64.8333 386.967 64.45 387.125 64 387.125ZM70 387.125C69.55 387.125 69.1667 386.967 68.85 386.65C68.5333 386.333 68.375 385.95 68.375 385.5C68.375 385.05 68.5333 384.667 68.85 384.35C69.1667 384.033 69.55 383.875 70 383.875C70.45 383.875 70.8333 384.033 71.15 384.35C71.4667 384.667 71.625 385.05 71.625 385.5C71.625 385.95 71.4667 386.333 71.15 386.65C70.8333 386.967 70.45 387.125 70 387.125ZM76 387.125C75.55 387.125 75.1667 386.967 74.85 386.65C74.5333 386.333 74.375 385.95 74.375 385.5C74.375 385.05 74.5333 384.667 74.85 384.35C75.1667 384.033 75.55 383.875 76 383.875C76.45 383.875 76.8333 384.033 77.15 384.35C77.4667 384.667 77.625 385.05 77.625 385.5C77.625 385.95 77.4667 386.333 77.15 386.65C76.8333 386.967 76.45 387.125 76 387.125ZM64 381.125C63.55 381.125 63.1667 380.967 62.85 380.65C62.5333 380.333 62.375 379.95 62.375 379.5C62.375 379.05 62.5333 378.667 62.85 378.35C63.1667 378.033 63.55 377.875 64 377.875C64.45 377.875 64.8333 378.033 65.15 378.35C65.4667 378.667 65.625 379.05 65.625 379.5C65.625 379.95 65.4667 380.333 65.15 380.65C64.8333 380.967 64.45 381.125 64 381.125ZM70 381.125C69.55 381.125 69.1667 380.967 68.85 380.65C68.5333 380.333 68.375 379.95 68.375 379.5C68.375 379.05 68.5333 378.667 68.85 378.35C69.1667 378.033 69.55 377.875 70 377.875C70.45 377.875 70.8333 378.033 71.15 378.35C71.4667 378.667 71.625 379.05 71.625 379.5C71.625 379.95 71.4667 380.333 71.15 380.65C70.8333 380.967 70.45 381.125 70 381.125ZM76 381.125C75.55 381.125 75.1667 380.967 74.85 380.65C74.5333 380.333 74.375 379.95 74.375 379.5C74.375 379.05 74.5333 378.667 74.85 378.35C75.1667 378.033 75.55 377.875 76 377.875C76.45 377.875 76.8333 378.033 77.15 378.35C77.4667 378.667 77.625 379.05 77.625 379.5C77.625 379.95 77.4667 380.333 77.15 380.65C76.8333 380.967 76.45 381.125 76 381.125Z" fill="#FB7F0D"/>
<path d="M105.038 380V370.62H102.154V369.57H109.014V370.62H106.158V380H105.038ZM112.492 380.168C111.782 380.168 111.138 380 110.56 379.664C109.981 379.319 109.519 378.852 109.174 378.264C108.838 377.667 108.67 376.99 108.67 376.234C108.67 375.487 108.838 374.82 109.174 374.232C109.51 373.644 109.962 373.182 110.532 372.846C111.11 372.501 111.764 372.328 112.492 372.328C113.22 372.328 113.868 372.496 114.438 372.832C115.016 373.168 115.469 373.63 115.796 374.218C116.132 374.806 116.3 375.478 116.3 376.234C116.3 376.999 116.127 377.681 115.782 378.278C115.436 378.866 114.974 379.328 114.396 379.664C113.826 380 113.192 380.168 112.492 380.168ZM112.492 379.118C112.996 379.118 113.448 378.992 113.85 378.74C114.26 378.488 114.582 378.143 114.816 377.704C115.058 377.265 115.18 376.775 115.18 376.234C115.18 375.693 115.058 375.207 114.816 374.778C114.582 374.349 114.26 374.008 113.85 373.756C113.448 373.504 112.996 373.378 112.492 373.378C111.988 373.378 111.53 373.504 111.12 373.756C110.718 374.008 110.396 374.349 110.154 374.778C109.911 375.207 109.79 375.693 109.79 376.234C109.79 376.775 109.911 377.265 110.154 377.704C110.396 378.143 110.718 378.488 111.12 378.74C111.53 378.992 111.988 379.118 112.492 379.118ZM120.605 380.084C119.933 380.084 119.415 379.888 119.051 379.496C118.687 379.104 118.505 378.544 118.505 377.816V373.546H117.119V372.496H117.469C117.786 372.496 118.038 372.393 118.225 372.188C118.411 371.973 118.505 371.707 118.505 371.39V370.76H119.555V372.496H121.207V373.546H119.555V377.816C119.555 378.068 119.592 378.292 119.667 378.488C119.741 378.675 119.867 378.824 120.045 378.936C120.231 379.048 120.479 379.104 120.787 379.104C120.861 379.104 120.95 379.099 121.053 379.09C121.155 379.081 121.244 379.071 121.319 379.062V380C121.207 380.028 121.081 380.047 120.941 380.056C120.801 380.075 120.689 380.084 120.605 380.084ZM124.916 380.168C124.44 380.168 124.015 380.079 123.642 379.902C123.268 379.715 122.974 379.463 122.76 379.146C122.545 378.829 122.438 378.465 122.438 378.054C122.438 377.662 122.522 377.307 122.69 376.99C122.858 376.663 123.119 376.388 123.474 376.164C123.828 375.94 124.281 375.781 124.832 375.688L127.772 375.198V376.15L125.084 376.598C124.542 376.691 124.15 376.864 123.908 377.116C123.674 377.368 123.558 377.667 123.558 378.012C123.558 378.348 123.688 378.633 123.95 378.866C124.22 379.099 124.566 379.216 124.986 379.216C125.499 379.216 125.947 379.109 126.33 378.894C126.712 378.67 127.011 378.371 127.226 377.998C127.44 377.625 127.548 377.209 127.548 376.752V374.848C127.548 374.4 127.384 374.036 127.058 373.756C126.731 373.476 126.306 373.336 125.784 373.336C125.326 373.336 124.925 373.453 124.58 373.686C124.234 373.91 123.978 374.204 123.81 374.568L122.858 374.05C122.998 373.733 123.217 373.443 123.516 373.182C123.824 372.921 124.174 372.715 124.566 372.566C124.958 372.407 125.364 372.328 125.784 372.328C126.334 372.328 126.82 372.435 127.24 372.65C127.669 372.865 128 373.163 128.234 373.546C128.476 373.919 128.598 374.353 128.598 374.848V380H127.548V378.502L127.702 378.656C127.571 378.936 127.366 379.193 127.086 379.426C126.815 379.65 126.493 379.832 126.12 379.972C125.756 380.103 125.354 380.168 124.916 380.168ZM130.478 380V369.402H131.528V380H130.478ZM139.164 380.168C138.501 380.168 137.899 380.042 137.358 379.79C136.816 379.538 136.359 379.202 135.986 378.782C135.612 378.353 135.346 377.881 135.188 377.368L136.196 376.99C136.438 377.699 136.816 378.241 137.33 378.614C137.843 378.978 138.454 379.16 139.164 379.16C139.612 379.16 140.004 379.09 140.34 378.95C140.685 378.801 140.951 378.595 141.138 378.334C141.324 378.073 141.418 377.769 141.418 377.424C141.418 376.911 141.278 376.514 140.998 376.234C140.718 375.954 140.316 375.739 139.794 375.59L137.918 375.03C137.18 374.815 136.611 374.456 136.21 373.952C135.818 373.448 135.622 372.874 135.622 372.23C135.622 371.679 135.757 371.194 136.028 370.774C136.298 370.345 136.667 370.009 137.134 369.766C137.61 369.523 138.146 369.402 138.744 369.402C139.369 369.402 139.929 369.519 140.424 369.752C140.928 369.976 141.352 370.275 141.698 370.648C142.043 371.021 142.29 371.437 142.44 371.894L141.46 372.286C141.236 371.67 140.886 371.203 140.41 370.886C139.943 370.569 139.392 370.41 138.758 370.41C138.356 370.41 138.002 370.48 137.694 370.62C137.395 370.76 137.162 370.961 136.994 371.222C136.826 371.483 136.742 371.791 136.742 372.146C136.742 372.575 136.877 372.963 137.148 373.308C137.418 373.644 137.834 373.896 138.394 374.064L140.046 374.554C140.867 374.797 141.488 375.147 141.908 375.604C142.328 376.061 142.538 376.635 142.538 377.326C142.538 377.886 142.393 378.381 142.104 378.81C141.824 379.23 141.427 379.561 140.914 379.804C140.41 380.047 139.826 380.168 139.164 380.168ZM146.163 380.168C145.687 380.168 145.262 380.079 144.889 379.902C144.516 379.715 144.222 379.463 144.007 379.146C143.792 378.829 143.685 378.465 143.685 378.054C143.685 377.662 143.769 377.307 143.937 376.99C144.105 376.663 144.366 376.388 144.721 376.164C145.076 375.94 145.528 375.781 146.079 375.688L149.019 375.198V376.15L146.331 376.598C145.79 376.691 145.398 376.864 145.155 377.116C144.922 377.368 144.805 377.667 144.805 378.012C144.805 378.348 144.936 378.633 145.197 378.866C145.468 379.099 145.813 379.216 146.233 379.216C146.746 379.216 147.194 379.109 147.577 378.894C147.96 378.67 148.258 378.371 148.473 377.998C148.688 377.625 148.795 377.209 148.795 376.752V374.848C148.795 374.4 148.632 374.036 148.305 373.756C147.978 373.476 147.554 373.336 147.031 373.336C146.574 373.336 146.172 373.453 145.827 373.686C145.482 373.91 145.225 374.204 145.057 374.568L144.105 374.05C144.245 373.733 144.464 373.443 144.763 373.182C145.071 372.921 145.421 372.715 145.813 372.566C146.205 372.407 146.611 372.328 147.031 372.328C147.582 372.328 148.067 372.435 148.487 372.65C148.916 372.865 149.248 373.163 149.481 373.546C149.724 373.919 149.845 374.353 149.845 374.848V380H148.795V378.502L148.949 378.656C148.818 378.936 148.613 379.193 148.333 379.426C148.062 379.65 147.74 379.832 147.367 379.972C147.003 380.103 146.602 380.168 146.163 380.168ZM151.725 380V369.402H152.775V380H151.725ZM158.06 380.168C157.36 380.168 156.725 380 156.156 379.664C155.596 379.319 155.153 378.847 154.826 378.25C154.499 377.653 154.336 376.976 154.336 376.22C154.336 375.464 154.495 374.797 154.812 374.218C155.129 373.63 155.559 373.168 156.1 372.832C156.651 372.496 157.267 372.328 157.948 372.328C158.489 372.328 158.97 372.431 159.39 372.636C159.819 372.832 160.183 373.103 160.482 373.448C160.781 373.784 161.009 374.167 161.168 374.596C161.327 375.016 161.406 375.45 161.406 375.898C161.406 375.991 161.401 376.099 161.392 376.22C161.383 376.332 161.369 376.449 161.35 376.57H155.008V375.59H160.748L160.244 376.01C160.328 375.497 160.267 375.039 160.062 374.638C159.866 374.227 159.581 373.905 159.208 373.672C158.835 373.429 158.415 373.308 157.948 373.308C157.481 373.308 157.047 373.429 156.646 373.672C156.254 373.915 155.946 374.255 155.722 374.694C155.498 375.123 155.409 375.637 155.456 376.234C155.409 376.831 155.503 377.354 155.736 377.802C155.979 378.241 156.305 378.581 156.716 378.824C157.136 379.067 157.584 379.188 158.06 379.188C158.611 379.188 159.073 379.057 159.446 378.796C159.819 378.535 160.123 378.208 160.356 377.816L161.252 378.292C161.103 378.628 160.874 378.941 160.566 379.23C160.258 379.51 159.889 379.739 159.46 379.916C159.04 380.084 158.573 380.168 158.06 380.168ZM165.581 380.168C164.863 380.168 164.233 379.986 163.691 379.622C163.15 379.258 162.758 378.763 162.515 378.138L163.397 377.718C163.612 378.175 163.911 378.539 164.293 378.81C164.685 379.081 165.115 379.216 165.581 379.216C166.029 379.216 166.407 379.109 166.715 378.894C167.023 378.67 167.177 378.381 167.177 378.026C167.177 377.765 167.103 377.559 166.953 377.41C166.804 377.251 166.631 377.13 166.435 377.046C166.239 376.962 166.067 376.901 165.917 376.864L164.839 376.556C164.149 376.36 163.649 376.085 163.341 375.73C163.033 375.375 162.879 374.965 162.879 374.498C162.879 374.059 162.991 373.677 163.215 373.35C163.439 373.023 163.743 372.771 164.125 372.594C164.508 372.417 164.933 372.328 165.399 372.328C166.034 372.328 166.608 372.496 167.121 372.832C167.644 373.159 168.013 373.616 168.227 374.204L167.331 374.624C167.145 374.204 166.874 373.877 166.519 373.644C166.174 373.401 165.787 373.28 165.357 373.28C164.937 373.28 164.601 373.387 164.349 373.602C164.097 373.817 163.971 374.087 163.971 374.414C163.971 374.666 164.037 374.867 164.167 375.016C164.298 375.165 164.447 375.277 164.615 375.352C164.793 375.427 164.947 375.483 165.077 375.52L166.323 375.884C166.93 376.061 167.401 376.337 167.737 376.71C168.083 377.083 168.255 377.522 168.255 378.026C168.255 378.437 168.139 378.805 167.905 379.132C167.681 379.459 167.369 379.715 166.967 379.902C166.566 380.079 166.104 380.168 165.581 380.168Z" fill="#7C8FAC"/>
<path d="M107.408 404.192C106.661 404.192 105.968 404.053 105.328 403.776C104.688 403.488 104.144 403.099 103.696 402.608C103.248 402.117 102.917 401.552 102.704 400.912L104.304 400.24C104.592 400.976 105.013 401.541 105.568 401.936C106.123 402.331 106.763 402.528 107.488 402.528C107.915 402.528 108.288 402.464 108.608 402.336C108.928 402.197 109.173 402.005 109.344 401.76C109.525 401.515 109.616 401.232 109.616 400.912C109.616 400.475 109.493 400.128 109.248 399.872C109.003 399.616 108.64 399.413 108.16 399.264L105.92 398.56C105.024 398.283 104.341 397.861 103.872 397.296C103.403 396.72 103.168 396.048 103.168 395.28C103.168 394.608 103.333 394.021 103.664 393.52C103.995 393.008 104.448 392.608 105.024 392.32C105.611 392.032 106.277 391.888 107.024 391.888C107.739 391.888 108.389 392.016 108.976 392.272C109.563 392.517 110.064 392.859 110.48 393.296C110.907 393.733 111.216 394.24 111.408 394.816L109.84 395.504C109.605 394.875 109.237 394.389 108.736 394.048C108.245 393.707 107.675 393.536 107.024 393.536C106.629 393.536 106.283 393.605 105.984 393.744C105.685 393.872 105.451 394.064 105.28 394.32C105.12 394.565 105.04 394.853 105.04 395.184C105.04 395.568 105.163 395.909 105.408 396.208C105.653 396.507 106.027 396.731 106.528 396.88L108.608 397.536C109.557 397.824 110.272 398.24 110.752 398.784C111.232 399.317 111.472 399.984 111.472 400.784C111.472 401.445 111.296 402.032 110.944 402.544C110.603 403.056 110.128 403.461 109.52 403.76C108.912 404.048 108.208 404.192 107.408 404.192ZM106.672 405.6V390.48H107.952V405.6H106.672ZM117.047 404.192C116.407 404.192 115.805 404.075 115.239 403.84C114.685 403.605 114.205 403.275 113.799 402.848C113.405 402.421 113.122 401.92 112.951 401.344L114.551 400.736C114.765 401.301 115.09 401.739 115.527 402.048C115.965 402.357 116.471 402.512 117.047 402.512C117.517 402.512 117.922 402.421 118.263 402.24C118.615 402.059 118.887 401.803 119.079 401.472C119.282 401.141 119.383 400.741 119.383 400.272C119.383 399.813 119.282 399.419 119.079 399.088C118.887 398.757 118.615 398.507 118.263 398.336C117.922 398.165 117.517 398.08 117.047 398.08C116.855 398.08 116.658 398.096 116.455 398.128C116.263 398.16 116.093 398.203 115.943 398.256L115.527 397.376L118.663 393.68H113.591V392.08H120.775V393.6L117.703 397.28L117.655 396.672C118.37 396.683 118.999 396.843 119.543 397.152C120.087 397.451 120.509 397.867 120.807 398.4C121.117 398.923 121.271 399.531 121.271 400.224C121.271 400.971 121.09 401.648 120.727 402.256C120.365 402.853 119.863 403.328 119.223 403.68C118.594 404.021 117.869 404.192 117.047 404.192ZM126.957 404.192C126.178 404.192 125.485 404.021 124.877 403.68C124.269 403.339 123.789 402.869 123.437 402.272C123.095 401.675 122.925 400.997 122.925 400.24C122.925 399.845 122.967 399.451 123.053 399.056C123.138 398.661 123.287 398.251 123.501 397.824C123.725 397.397 124.023 396.939 124.397 396.448L127.725 392.08H129.981L125.901 397.36L125.581 397.152C125.73 396.981 125.89 396.848 126.061 396.752C126.242 396.656 126.429 396.587 126.621 396.544C126.823 396.501 127.037 396.48 127.261 396.48C127.975 396.48 128.615 396.645 129.181 396.976C129.746 397.307 130.189 397.755 130.509 398.32C130.839 398.885 131.005 399.536 131.005 400.272C131.005 401.019 130.829 401.691 130.477 402.288C130.125 402.875 129.645 403.339 129.037 403.68C128.439 404.021 127.746 404.192 126.957 404.192ZM126.957 402.512C127.373 402.512 127.741 402.416 128.061 402.224C128.381 402.032 128.637 401.771 128.829 401.44C129.021 401.099 129.117 400.715 129.117 400.288C129.117 399.851 129.021 399.467 128.829 399.136C128.647 398.805 128.391 398.549 128.061 398.368C127.741 398.176 127.373 398.08 126.957 398.08C126.551 398.08 126.183 398.176 125.853 398.368C125.533 398.549 125.277 398.805 125.085 399.136C124.893 399.467 124.797 399.851 124.797 400.288C124.797 400.715 124.893 401.099 125.085 401.44C125.277 401.771 125.533 402.032 125.853 402.224C126.183 402.416 126.551 402.512 126.957 402.512ZM133.27 406.352V405.472C133.622 405.387 133.894 405.221 134.086 404.976C134.278 404.741 134.395 404.416 134.438 404H133.59V401.92H135.43V403.28C135.43 404.133 135.249 404.821 134.886 405.344C134.523 405.867 133.985 406.203 133.27 406.352ZM141.688 404.192C141.048 404.192 140.445 404.075 139.88 403.84C139.325 403.605 138.845 403.275 138.44 402.848C138.045 402.421 137.763 401.92 137.592 401.344L139.192 400.736C139.405 401.301 139.731 401.739 140.168 402.048C140.605 402.357 141.112 402.512 141.688 402.512C142.157 402.512 142.563 402.421 142.904 402.24C143.256 402.059 143.528 401.803 143.72 401.472C143.923 401.141 144.024 400.741 144.024 400.272C144.024 399.813 143.923 399.419 143.72 399.088C143.528 398.757 143.256 398.507 142.904 398.336C142.563 398.165 142.157 398.08 141.688 398.08C141.496 398.08 141.299 398.096 141.096 398.128C140.904 398.16 140.733 398.203 140.584 398.256L140.168 397.376L143.304 393.68H138.232V392.08H145.416V393.6L142.344 397.28L142.296 396.672C143.011 396.683 143.64 396.843 144.184 397.152C144.728 397.451 145.149 397.867 145.448 398.4C145.757 398.923 145.912 399.531 145.912 400.224C145.912 400.971 145.731 401.648 145.368 402.256C145.005 402.853 144.504 403.328 143.864 403.68C143.235 404.021 142.509 404.192 141.688 404.192ZM151.565 404.192C150.936 404.192 150.344 404.08 149.789 403.856C149.235 403.621 148.755 403.296 148.349 402.88C147.944 402.464 147.656 401.963 147.485 401.376L149.069 400.768C149.272 401.333 149.603 401.765 150.061 402.064C150.52 402.363 151.021 402.512 151.565 402.512C152.013 402.512 152.408 402.411 152.749 402.208C153.091 402.005 153.357 401.728 153.549 401.376C153.752 401.024 153.853 400.624 153.853 400.176C153.853 399.717 153.752 399.317 153.549 398.976C153.357 398.624 153.091 398.352 152.749 398.16C152.408 397.957 152.013 397.856 151.565 397.856C151.117 397.856 150.707 397.957 150.333 398.16C149.96 398.363 149.688 398.635 149.517 398.976L147.997 398.64L148.925 392.08H155.277V393.68H149.661L150.381 392.896L149.693 397.92L149.101 397.52C149.421 397.072 149.811 396.747 150.269 396.544C150.728 396.341 151.251 396.24 151.837 396.24C152.616 396.24 153.293 396.416 153.869 396.768C154.456 397.109 154.909 397.579 155.229 398.176C155.56 398.763 155.725 399.429 155.725 400.176C155.725 400.933 155.544 401.616 155.181 402.224C154.819 402.832 154.323 403.312 153.693 403.664C153.075 404.016 152.365 404.192 151.565 404.192ZM161.665 404.192C160.833 404.192 160.102 404.032 159.473 403.712C158.854 403.381 158.374 402.944 158.033 402.4C157.692 401.845 157.521 401.232 157.521 400.56C157.521 399.792 157.729 399.131 158.145 398.576C158.572 398.011 159.169 397.6 159.937 397.344L159.857 397.824C159.292 397.611 158.844 397.253 158.513 396.752C158.193 396.24 158.033 395.68 158.033 395.072C158.033 394.464 158.188 393.92 158.497 393.44C158.817 392.96 159.249 392.581 159.793 392.304C160.348 392.027 160.972 391.888 161.665 391.888C162.369 391.888 162.993 392.027 163.537 392.304C164.081 392.571 164.508 392.944 164.817 393.424C165.137 393.904 165.297 394.453 165.297 395.072C165.297 395.701 165.132 396.267 164.801 396.768C164.481 397.259 164.044 397.611 163.489 397.824L163.409 397.344C164.177 397.611 164.774 398.021 165.201 398.576C165.628 399.131 165.841 399.792 165.841 400.56C165.841 401.232 165.665 401.845 165.313 402.4C164.972 402.944 164.486 403.381 163.857 403.712C163.228 404.032 162.497 404.192 161.665 404.192ZM161.665 402.592C162.124 402.592 162.524 402.507 162.865 402.336C163.206 402.155 163.473 401.909 163.665 401.6C163.857 401.291 163.953 400.928 163.953 400.512C163.953 400.096 163.857 399.733 163.665 399.424C163.473 399.115 163.206 398.875 162.865 398.704C162.524 398.533 162.124 398.448 161.665 398.448C161.217 398.448 160.822 398.533 160.481 398.704C160.14 398.875 159.873 399.115 159.681 399.424C159.489 399.733 159.393 400.096 159.393 400.512C159.393 400.928 159.489 401.291 159.681 401.6C159.873 401.909 160.14 402.155 160.481 402.336C160.822 402.507 161.217 402.592 161.665 402.592ZM161.665 396.848C162.006 396.848 162.305 396.779 162.561 396.64C162.828 396.491 163.036 396.288 163.185 396.032C163.334 395.776 163.409 395.488 163.409 395.168C163.409 394.837 163.334 394.549 163.185 394.304C163.036 394.048 162.828 393.851 162.561 393.712C162.305 393.563 162.006 393.488 161.665 393.488C161.334 393.488 161.036 393.563 160.769 393.712C160.502 393.851 160.294 394.048 160.145 394.304C159.996 394.549 159.921 394.837 159.921 395.168C159.921 395.488 159.996 395.776 160.145 396.032C160.294 396.288 160.502 396.491 160.769 396.64C161.036 396.779 161.334 396.848 161.665 396.848Z" fill="#1E3146"/>
<rect x="217" y="365.5" width="40" height="40" rx="8" fill="#EAEFF4"/>
<path d="M231 393.125C230.55 393.125 230.167 392.967 229.85 392.65C229.533 392.333 229.375 391.95 229.375 391.5C229.375 391.05 229.533 390.667 229.85 390.35C230.167 390.033 230.55 389.875 231 389.875C231.45 389.875 231.833 390.033 232.15 390.35C232.467 390.667 232.625 391.05 232.625 391.5C232.625 391.95 232.467 392.333 232.15 392.65C231.833 392.967 231.45 393.125 231 393.125ZM237 393.125C236.55 393.125 236.167 392.967 235.85 392.65C235.533 392.333 235.375 391.95 235.375 391.5C235.375 391.05 235.533 390.667 235.85 390.35C236.167 390.033 236.55 389.875 237 389.875C237.45 389.875 237.833 390.033 238.15 390.35C238.467 390.667 238.625 391.05 238.625 391.5C238.625 391.95 238.467 392.333 238.15 392.65C237.833 392.967 237.45 393.125 237 393.125ZM243 393.125C242.55 393.125 242.167 392.967 241.85 392.65C241.533 392.333 241.375 391.95 241.375 391.5C241.375 391.05 241.533 390.667 241.85 390.35C242.167 390.033 242.55 389.875 243 389.875C243.45 389.875 243.833 390.033 244.15 390.35C244.467 390.667 244.625 391.05 244.625 391.5C244.625 391.95 244.467 392.333 244.15 392.65C243.833 392.967 243.45 393.125 243 393.125ZM231 387.125C230.55 387.125 230.167 386.967 229.85 386.65C229.533 386.333 229.375 385.95 229.375 385.5C229.375 385.05 229.533 384.667 229.85 384.35C230.167 384.033 230.55 383.875 231 383.875C231.45 383.875 231.833 384.033 232.15 384.35C232.467 384.667 232.625 385.05 232.625 385.5C232.625 385.95 232.467 386.333 232.15 386.65C231.833 386.967 231.45 387.125 231 387.125ZM237 387.125C236.55 387.125 236.167 386.967 235.85 386.65C235.533 386.333 235.375 385.95 235.375 385.5C235.375 385.05 235.533 384.667 235.85 384.35C236.167 384.033 236.55 383.875 237 383.875C237.45 383.875 237.833 384.033 238.15 384.35C238.467 384.667 238.625 385.05 238.625 385.5C238.625 385.95 238.467 386.333 238.15 386.65C237.833 386.967 237.45 387.125 237 387.125ZM243 387.125C242.55 387.125 242.167 386.967 241.85 386.65C241.533 386.333 241.375 385.95 241.375 385.5C241.375 385.05 241.533 384.667 241.85 384.35C242.167 384.033 242.55 383.875 243 383.875C243.45 383.875 243.833 384.033 244.15 384.35C244.467 384.667 244.625 385.05 244.625 385.5C244.625 385.95 244.467 386.333 244.15 386.65C243.833 386.967 243.45 387.125 243 387.125ZM231 381.125C230.55 381.125 230.167 380.967 229.85 380.65C229.533 380.333 229.375 379.95 229.375 379.5C229.375 379.05 229.533 378.667 229.85 378.35C230.167 378.033 230.55 377.875 231 377.875C231.45 377.875 231.833 378.033 232.15 378.35C232.467 378.667 232.625 379.05 232.625 379.5C232.625 379.95 232.467 380.333 232.15 380.65C231.833 380.967 231.45 381.125 231 381.125ZM237 381.125C236.55 381.125 236.167 380.967 235.85 380.65C235.533 380.333 235.375 379.95 235.375 379.5C235.375 379.05 235.533 378.667 235.85 378.35C236.167 378.033 236.55 377.875 237 377.875C237.45 377.875 237.833 378.033 238.15 378.35C238.467 378.667 238.625 379.05 238.625 379.5C238.625 379.95 238.467 380.333 238.15 380.65C237.833 380.967 237.45 381.125 237 381.125ZM243 381.125C242.55 381.125 242.167 380.967 241.85 380.65C241.533 380.333 241.375 379.95 241.375 379.5C241.375 379.05 241.533 378.667 241.85 378.35C242.167 378.033 242.55 377.875 243 377.875C243.45 377.875 243.833 378.033 244.15 378.35C244.467 378.667 244.625 379.05 244.625 379.5C244.625 379.95 244.467 380.333 244.15 380.65C243.833 380.967 243.45 381.125 243 381.125Z" fill="#7C8FAC"/>
<path d="M270.232 380V369.57H276.952V370.62H271.352V374.246H276.672V375.296H271.352V378.95H276.952V380H270.232ZM277.446 380L280.078 376.248L277.46 372.496H278.748L281.072 375.87H280.358L282.668 372.496H283.956L281.338 376.248L283.956 380H282.668L280.358 376.626H281.072L278.748 380H277.446ZM284.913 382.8V372.496H285.963V374.176L285.795 373.882C286.093 373.406 286.49 373.028 286.985 372.748C287.489 372.468 288.063 372.328 288.707 372.328C289.416 372.328 290.046 372.501 290.597 372.846C291.157 373.182 291.595 373.644 291.913 374.232C292.239 374.82 292.403 375.492 292.403 376.248C292.403 376.995 292.239 377.667 291.913 378.264C291.595 378.852 291.157 379.319 290.597 379.664C290.046 380 289.416 380.168 288.707 380.168C288.063 380.168 287.479 380.023 286.957 379.734C286.443 379.435 286.056 379.015 285.795 378.474L285.963 378.32V382.8H284.913ZM288.651 379.118C289.155 379.118 289.603 378.992 289.995 378.74C290.396 378.488 290.709 378.147 290.933 377.718C291.166 377.279 291.283 376.789 291.283 376.248C291.283 375.697 291.166 375.207 290.933 374.778C290.709 374.349 290.396 374.008 289.995 373.756C289.603 373.504 289.155 373.378 288.651 373.378C288.147 373.378 287.689 373.504 287.279 373.756C286.877 374.008 286.555 374.353 286.313 374.792C286.079 375.221 285.963 375.707 285.963 376.248C285.963 376.789 286.079 377.279 286.313 377.718C286.555 378.147 286.877 378.488 287.279 378.74C287.689 378.992 288.147 379.118 288.651 379.118ZM297.386 380.168C296.686 380.168 296.052 380 295.482 379.664C294.922 379.319 294.479 378.847 294.152 378.25C293.826 377.653 293.662 376.976 293.662 376.22C293.662 375.464 293.821 374.797 294.138 374.218C294.456 373.63 294.885 373.168 295.426 372.832C295.977 372.496 296.593 372.328 297.274 372.328C297.816 372.328 298.296 372.431 298.716 372.636C299.146 372.832 299.51 373.103 299.808 373.448C300.107 373.784 300.336 374.167 300.494 374.596C300.653 375.016 300.732 375.45 300.732 375.898C300.732 375.991 300.728 376.099 300.718 376.22C300.709 376.332 300.695 376.449 300.676 376.57H294.334V375.59H300.074L299.57 376.01C299.654 375.497 299.594 375.039 299.388 374.638C299.192 374.227 298.908 373.905 298.534 373.672C298.161 373.429 297.741 373.308 297.274 373.308C296.808 373.308 296.374 373.429 295.972 373.672C295.58 373.915 295.272 374.255 295.048 374.694C294.824 375.123 294.736 375.637 294.782 376.234C294.736 376.831 294.829 377.354 295.062 377.802C295.305 378.241 295.632 378.581 296.042 378.824C296.462 379.067 296.91 379.188 297.386 379.188C297.937 379.188 298.399 379.057 298.772 378.796C299.146 378.535 299.449 378.208 299.682 377.816L300.578 378.292C300.429 378.628 300.2 378.941 299.892 379.23C299.584 379.51 299.216 379.739 298.786 379.916C298.366 380.084 297.9 380.168 297.386 380.168ZM302.304 380V372.496H303.354V373.952L303.116 373.896C303.302 373.411 303.606 373.028 304.026 372.748C304.455 372.468 304.95 372.328 305.51 372.328C306.042 372.328 306.518 372.449 306.938 372.692C307.367 372.935 307.703 373.271 307.946 373.7C308.198 374.12 308.324 374.596 308.324 375.128V380H307.274V375.534C307.274 375.077 307.19 374.689 307.022 374.372C306.863 374.055 306.634 373.812 306.336 373.644C306.046 373.467 305.71 373.378 305.328 373.378C304.945 373.378 304.604 373.467 304.306 373.644C304.007 373.812 303.774 374.059 303.606 374.386C303.438 374.703 303.354 375.086 303.354 375.534V380H302.304ZM312.653 380.168C311.934 380.168 311.304 379.986 310.763 379.622C310.222 379.258 309.83 378.763 309.587 378.138L310.469 377.718C310.684 378.175 310.982 378.539 311.365 378.81C311.757 379.081 312.186 379.216 312.653 379.216C313.101 379.216 313.479 379.109 313.787 378.894C314.095 378.67 314.249 378.381 314.249 378.026C314.249 377.765 314.174 377.559 314.025 377.41C313.876 377.251 313.703 377.13 313.507 377.046C313.311 376.962 313.138 376.901 312.989 376.864L311.911 376.556C311.22 376.36 310.721 376.085 310.413 375.73C310.105 375.375 309.951 374.965 309.951 374.498C309.951 374.059 310.063 373.677 310.287 373.35C310.511 373.023 310.814 372.771 311.197 372.594C311.58 372.417 312.004 372.328 312.471 372.328C313.106 372.328 313.68 372.496 314.193 372.832C314.716 373.159 315.084 373.616 315.299 374.204L314.403 374.624C314.216 374.204 313.946 373.877 313.591 373.644C313.246 373.401 312.858 373.28 312.429 373.28C312.009 373.28 311.673 373.387 311.421 373.602C311.169 373.817 311.043 374.087 311.043 374.414C311.043 374.666 311.108 374.867 311.239 375.016C311.37 375.165 311.519 375.277 311.687 375.352C311.864 375.427 312.018 375.483 312.149 375.52L313.395 375.884C314.002 376.061 314.473 376.337 314.809 376.71C315.154 377.083 315.327 377.522 315.327 378.026C315.327 378.437 315.21 378.805 314.977 379.132C314.753 379.459 314.44 379.715 314.039 379.902C313.638 380.079 313.176 380.168 312.653 380.168ZM320.308 380.168C319.608 380.168 318.973 380 318.404 379.664C317.844 379.319 317.401 378.847 317.074 378.25C316.747 377.653 316.584 376.976 316.584 376.22C316.584 375.464 316.743 374.797 317.06 374.218C317.377 373.63 317.807 373.168 318.348 372.832C318.899 372.496 319.515 372.328 320.196 372.328C320.737 372.328 321.218 372.431 321.638 372.636C322.067 372.832 322.431 373.103 322.73 373.448C323.029 373.784 323.257 374.167 323.416 374.596C323.575 375.016 323.654 375.45 323.654 375.898C323.654 375.991 323.649 376.099 323.64 376.22C323.631 376.332 323.617 376.449 323.598 376.57H317.256V375.59H322.996L322.492 376.01C322.576 375.497 322.515 375.039 322.31 374.638C322.114 374.227 321.829 373.905 321.456 373.672C321.083 373.429 320.663 373.308 320.196 373.308C319.729 373.308 319.295 373.429 318.894 373.672C318.502 373.915 318.194 374.255 317.97 374.694C317.746 375.123 317.657 375.637 317.704 376.234C317.657 376.831 317.751 377.354 317.984 377.802C318.227 378.241 318.553 378.581 318.964 378.824C319.384 379.067 319.832 379.188 320.308 379.188C320.859 379.188 321.321 379.057 321.694 378.796C322.067 378.535 322.371 378.208 322.604 377.816L323.5 378.292C323.351 378.628 323.122 378.941 322.814 379.23C322.506 379.51 322.137 379.739 321.708 379.916C321.288 380.084 320.821 380.168 320.308 380.168ZM327.829 380.168C327.111 380.168 326.481 379.986 325.939 379.622C325.398 379.258 325.006 378.763 324.763 378.138L325.645 377.718C325.86 378.175 326.159 378.539 326.541 378.81C326.933 379.081 327.363 379.216 327.829 379.216C328.277 379.216 328.655 379.109 328.963 378.894C329.271 378.67 329.425 378.381 329.425 378.026C329.425 377.765 329.351 377.559 329.201 377.41C329.052 377.251 328.879 377.13 328.683 377.046C328.487 376.962 328.315 376.901 328.165 376.864L327.087 376.556C326.397 376.36 325.897 376.085 325.589 375.73C325.281 375.375 325.127 374.965 325.127 374.498C325.127 374.059 325.239 373.677 325.463 373.35C325.687 373.023 325.991 372.771 326.373 372.594C326.756 372.417 327.181 372.328 327.647 372.328C328.282 372.328 328.856 372.496 329.369 372.832C329.892 373.159 330.261 373.616 330.475 374.204L329.579 374.624C329.393 374.204 329.122 373.877 328.767 373.644C328.422 373.401 328.035 373.28 327.605 373.28C327.185 373.28 326.849 373.387 326.597 373.602C326.345 373.817 326.219 374.087 326.219 374.414C326.219 374.666 326.285 374.867 326.415 375.016C326.546 375.165 326.695 375.277 326.863 375.352C327.041 375.427 327.195 375.483 327.325 375.52L328.571 375.884C329.178 376.061 329.649 376.337 329.985 376.71C330.331 377.083 330.503 377.522 330.503 378.026C330.503 378.437 330.387 378.805 330.153 379.132C329.929 379.459 329.617 379.715 329.215 379.902C328.814 380.079 328.352 380.168 327.829 380.168Z" fill="#7C8FAC"/>
<path d="M274.408 404.192C273.661 404.192 272.968 404.053 272.328 403.776C271.688 403.488 271.144 403.099 270.696 402.608C270.248 402.117 269.917 401.552 269.704 400.912L271.304 400.24C271.592 400.976 272.013 401.541 272.568 401.936C273.123 402.331 273.763 402.528 274.488 402.528C274.915 402.528 275.288 402.464 275.608 402.336C275.928 402.197 276.173 402.005 276.344 401.76C276.525 401.515 276.616 401.232 276.616 400.912C276.616 400.475 276.493 400.128 276.248 399.872C276.003 399.616 275.64 399.413 275.16 399.264L272.92 398.56C272.024 398.283 271.341 397.861 270.872 397.296C270.403 396.72 270.168 396.048 270.168 395.28C270.168 394.608 270.333 394.021 270.664 393.52C270.995 393.008 271.448 392.608 272.024 392.32C272.611 392.032 273.277 391.888 274.024 391.888C274.739 391.888 275.389 392.016 275.976 392.272C276.563 392.517 277.064 392.859 277.48 393.296C277.907 393.733 278.216 394.24 278.408 394.816L276.84 395.504C276.605 394.875 276.237 394.389 275.736 394.048C275.245 393.707 274.675 393.536 274.024 393.536C273.629 393.536 273.283 393.605 272.984 393.744C272.685 393.872 272.451 394.064 272.28 394.32C272.12 394.565 272.04 394.853 272.04 395.184C272.04 395.568 272.163 395.909 272.408 396.208C272.653 396.507 273.027 396.731 273.528 396.88L275.608 397.536C276.557 397.824 277.272 398.24 277.752 398.784C278.232 399.317 278.472 399.984 278.472 400.784C278.472 401.445 278.296 402.032 277.944 402.544C277.603 403.056 277.128 403.461 276.52 403.76C275.912 404.048 275.208 404.192 274.408 404.192ZM273.672 405.6V390.48H274.952V405.6H273.672ZM284.143 404.192C283.514 404.192 282.922 404.08 282.367 403.856C281.813 403.621 281.333 403.296 280.927 402.88C280.522 402.464 280.234 401.963 280.063 401.376L281.647 400.768C281.85 401.333 282.181 401.765 282.639 402.064C283.098 402.363 283.599 402.512 284.143 402.512C284.591 402.512 284.986 402.411 285.327 402.208C285.669 402.005 285.935 401.728 286.127 401.376C286.33 401.024 286.431 400.624 286.431 400.176C286.431 399.717 286.33 399.317 286.127 398.976C285.935 398.624 285.669 398.352 285.327 398.16C284.986 397.957 284.591 397.856 284.143 397.856C283.695 397.856 283.285 397.957 282.911 398.16C282.538 398.363 282.266 398.635 282.095 398.976L280.575 398.64L281.503 392.08H287.855V393.68H282.239L282.959 392.896L282.271 397.92L281.679 397.52C281.999 397.072 282.389 396.747 282.847 396.544C283.306 396.341 283.829 396.24 284.415 396.24C285.194 396.24 285.871 396.416 286.447 396.768C287.034 397.109 287.487 397.579 287.807 398.176C288.138 398.763 288.303 399.429 288.303 400.176C288.303 400.933 288.122 401.616 287.759 402.224C287.397 402.832 286.901 403.312 286.271 403.664C285.653 404.016 284.943 404.192 284.143 404.192ZM290.723 406.352V405.472C291.075 405.387 291.347 405.221 291.539 404.976C291.731 404.741 291.848 404.416 291.891 404H291.043V401.92H292.883V403.28C292.883 404.133 292.702 404.821 292.339 405.344C291.976 405.867 291.438 406.203 290.723 406.352ZM295.253 404V402.64L298.517 399.152C299.157 398.469 299.658 397.92 300.021 397.504C300.394 397.077 300.661 396.704 300.821 396.384C300.992 396.064 301.077 395.728 301.077 395.376C301.077 394.8 300.901 394.357 300.549 394.048C300.197 393.728 299.744 393.568 299.189 393.568C298.613 393.568 298.117 393.733 297.701 394.064C297.285 394.384 296.997 394.853 296.837 395.472L295.173 394.992C295.301 394.363 295.557 393.819 295.941 393.36C296.325 392.891 296.794 392.528 297.349 392.272C297.914 392.016 298.522 391.888 299.173 391.888C299.93 391.888 300.592 392.032 301.157 392.32C301.722 392.597 302.16 392.987 302.469 393.488C302.789 393.989 302.949 394.571 302.949 395.232C302.949 395.669 302.864 396.096 302.693 396.512C302.533 396.917 302.282 397.349 301.941 397.808C301.6 398.256 301.162 398.763 300.629 399.328L297.749 402.4H303.173V404H295.253ZM305.792 404L309.872 398.72L310.192 398.928C310.042 399.088 309.877 399.216 309.696 399.312C309.525 399.408 309.338 399.477 309.136 399.52C308.944 399.563 308.736 399.584 308.512 399.584C307.797 399.584 307.157 399.424 306.592 399.104C306.026 398.773 305.578 398.325 305.248 397.76C304.928 397.184 304.768 396.533 304.768 395.808C304.768 395.051 304.944 394.379 305.296 393.792C305.648 393.205 306.128 392.741 306.736 392.4C307.344 392.059 308.037 391.888 308.816 391.888C309.605 391.888 310.298 392.059 310.896 392.4C311.504 392.741 311.978 393.211 312.32 393.808C312.672 394.395 312.848 395.067 312.848 395.824C312.848 396.229 312.805 396.629 312.72 397.024C312.634 397.419 312.485 397.829 312.272 398.256C312.058 398.672 311.76 399.131 311.376 399.632L308.048 404H305.792ZM308.816 398C309.232 398 309.6 397.904 309.92 397.712C310.24 397.52 310.496 397.259 310.688 396.928C310.88 396.597 310.976 396.219 310.976 395.792C310.976 395.355 310.88 394.971 310.688 394.64C310.496 394.299 310.234 394.037 309.904 393.856C309.584 393.664 309.221 393.568 308.816 393.568C308.41 393.568 308.042 393.664 307.712 393.856C307.392 394.037 307.136 394.299 306.944 394.64C306.752 394.971 306.656 395.355 306.656 395.792C306.656 396.219 306.746 396.597 306.928 396.928C307.12 397.259 307.381 397.52 307.712 397.712C308.042 397.904 308.41 398 308.816 398ZM318.129 404.192C317.35 404.192 316.657 404.021 316.049 403.68C315.441 403.339 314.961 402.869 314.609 402.272C314.267 401.675 314.097 400.997 314.097 400.24C314.097 399.845 314.139 399.451 314.225 399.056C314.31 398.661 314.459 398.251 314.673 397.824C314.897 397.397 315.195 396.939 315.569 396.448L318.897 392.08H321.153L317.073 397.36L316.753 397.152C316.902 396.981 317.062 396.848 317.233 396.752C317.414 396.656 317.601 396.587 317.793 396.544C317.995 396.501 318.209 396.48 318.433 396.48C319.147 396.48 319.787 396.645 320.353 396.976C320.918 397.307 321.361 397.755 321.681 398.32C322.011 398.885 322.177 399.536 322.177 400.272C322.177 401.019 322.001 401.691 321.649 402.288C321.297 402.875 320.817 403.339 320.209 403.68C319.611 404.021 318.918 404.192 318.129 404.192ZM318.129 402.512C318.545 402.512 318.913 402.416 319.233 402.224C319.553 402.032 319.809 401.771 320.001 401.44C320.193 401.099 320.289 400.715 320.289 400.288C320.289 399.851 320.193 399.467 320.001 399.136C319.819 398.805 319.563 398.549 319.233 398.368C318.913 398.176 318.545 398.08 318.129 398.08C317.723 398.08 317.355 398.176 317.025 398.368C316.705 398.549 316.449 398.805 316.257 399.136C316.065 399.467 315.969 399.851 315.969 400.288C315.969 400.715 316.065 401.099 316.257 401.44C316.449 401.771 316.705 402.032 317.025 402.224C317.355 402.416 317.723 402.512 318.129 402.512Z" fill="#1E3146"/>
</g>
<defs>
<filter id="filter0_dd_3920_13123" x="0" y="0" width="402" height="478" filterUnits="userSpaceOnUse" color-interpolation-filters="sRGB">
<feFlood flood-opacity="0" result="BackgroundImageFix"/>
<feColorMatrix in="SourceAlpha" type="matrix" values="0 0 0 0 0 0 0 0 0 0 0 0 0 0 0 0 0 0 127 0" result="hardAlpha"/>
<feMorphology radius="4" operator="erode" in="SourceAlpha" result="effect1_dropShadow_3920_13123"/>
<feOffset dy="12"/>
<feGaussianBlur stdDeviation="12"/>
<feComposite in2="hardAlpha" operator="out"/>
<feColorMatrix type="matrix" values="0 0 0 0 0.568627 0 0 0 0 0.619608 0 0 0 0 0.670588 0 0 0 0.12 0"/>
<feBlend mode="normal" in2="BackgroundImageFix" result="effect1_dropShadow_3920_13123"/>
<feColorMatrix in="SourceAlpha" type="matrix" values="0 0 0 0 0 0 0 0 0 0 0 0 0 0 0 0 0 0 127 0" result="hardAlpha"/>
<feOffset/>
<feGaussianBlur stdDeviation="1"/>
<feComposite in2="hardAlpha" operator="out"/>
<feColorMatrix type="matrix" values="0 0 0 0 0.168627 0 0 0 0 0.0705882 0 0 0 0 0.223529 0 0 0 1 0"/>
<feBlend mode="normal" in2="effect1_dropShadow_3920_13123" result="effect2_dropShadow_3920_13123"/>
<feBlend mode="normal" in="SourceGraphic" in2="effect2_dropShadow_3920_13123" result="shape"/>
</filter>
</defs>
</svg>
